<svg width="228" height="61" viewBox="0 0 228 61" fill="none" xmlns="http://www.w3.org/2000/svg">
<path d="M59.7146 21.0738C59.7146 20.7451 59.7146 20.526 59.8242 20.4164C59.9337 20.1973 60.0433 20.0877 60.2625 19.9781C60.4816 19.8686 60.8103 19.8686 61.139 19.759C61.5773 19.759 62.0156 19.6494 62.673 19.6494C63.3304 19.6494 63.8783 19.6494 64.207 19.759C64.6453 19.759 64.8644 19.8686 65.0836 19.9781C65.3027 20.0877 65.4123 20.1973 65.5218 20.4164C65.6314 20.6355 65.6314 20.8547 65.6314 21.0738L64.974 44.3028H69.2472C69.5759 44.3028 69.7951 44.3028 69.9047 44.4123C70.0142 44.4123 70.2334 44.5219 70.2334 44.6315C70.3429 44.741 70.3429 44.8506 70.3429 45.0698C70.3429 45.2889 70.3429 45.508 70.3429 45.8367C70.3429 46.1655 70.3429 46.3846 70.3429 46.6037C70.3429 46.8229 70.3429 46.9325 70.2334 47.042C70.1238 47.1516 70.0142 47.2612 69.9047 47.2612C69.7951 47.2612 69.5759 47.3707 69.2472 47.3707H62.673C62.1251 47.3707 61.7964 47.3707 61.4677 47.3707C61.139 47.3707 60.9199 47.2612 60.8103 47.2612C60.7007 47.1516 60.5912 47.042 60.4816 46.9325C60.4816 46.8229 60.372 46.6037 60.372 46.275L59.7146 21.0738ZM77.465 38.7147L71.5482 22.06C71.4386 21.7313 71.3291 21.5121 71.3291 21.293C71.2195 21.0738 71.2195 20.8547 71.2195 20.6355C71.2195 20.4164 71.2195 20.3068 71.3291 20.1973C71.4386 20.0877 71.5482 19.9781 71.7673 19.8686C71.9865 19.759 72.3152 19.759 72.7535 19.759C73.1918 19.759 73.63 19.759 74.2875 19.759C74.8353 19.759 75.3832 19.759 75.7119 19.759C76.0406 19.759 76.3693 19.8686 76.5884 19.9781C76.8076 20.0877 76.9172 20.1973 77.0267 20.4164C77.1363 20.6355 77.2459 20.8547 77.2459 21.1834L79.766 34.0031H80.0947L82.5052 21.1834C82.6148 20.8547 82.6148 20.526 82.7244 20.4164C82.834 20.1973 82.9435 20.0877 83.1627 19.9781C83.3818 19.8686 83.6009 19.8686 84.0392 19.8686C84.3679 19.8686 84.9158 19.8686 85.4636 19.8686C86.0115 19.8686 86.5594 19.8686 86.9976 19.8686C87.4359 19.8686 87.6551 19.9781 87.9838 19.9781C88.2029 20.0877 88.422 20.0877 88.422 20.3068C88.5316 20.4164 88.5316 20.6355 88.5316 20.7451C88.5316 20.9643 88.5316 21.1834 88.422 21.4025C88.3125 21.6217 88.3125 21.9504 88.2029 22.1695L82.3957 38.9338L82.1765 46.3846C82.1765 46.6037 82.1765 46.8229 82.067 47.042C82.067 47.1516 81.9574 47.2612 81.7383 47.3707C81.6287 47.4803 81.4095 47.4803 81.0808 47.4803C80.7521 47.4803 80.4234 47.4803 79.8756 47.4803C79.3277 47.4803 78.999 47.4803 78.6703 47.4803C78.3416 47.4803 78.1224 47.3707 78.0129 47.3707C77.9033 47.2612 77.7937 47.1516 77.6841 47.042C77.6841 46.9325 77.5746 46.7133 77.5746 46.3846L77.465 38.7147ZM90.8326 21.0738C90.8326 20.7451 90.8326 20.526 90.9422 20.4164C90.9422 20.1973 91.1613 20.0877 91.2709 19.9781C91.49 19.8686 91.7092 19.8686 92.0379 19.759C92.3666 19.759 92.8049 19.6494 93.4623 19.6494C93.9006 19.6494 94.2293 19.6494 94.558 19.6494C94.8867 19.6494 95.1058 19.759 95.325 19.759C95.5441 19.759 95.6537 19.8686 95.7633 19.9781C95.8728 20.0877 95.9824 20.1973 95.9824 20.4164L102.118 37.0711H102.228L101.351 21.0738C101.351 20.7451 101.351 20.526 101.461 20.4164C101.57 20.1973 101.68 20.0877 101.79 19.9781C102.009 19.8686 102.228 19.8686 102.557 19.759C102.885 19.759 103.433 19.6494 103.981 19.6494C104.638 19.6494 105.186 19.6494 105.515 19.759C105.953 19.759 106.172 19.8686 106.392 19.9781C106.611 20.0877 106.72 20.1973 106.83 20.4164C106.939 20.6355 106.939 20.8547 106.939 21.0738L106.172 45.7272C106.172 45.9463 106.172 46.1655 106.063 46.3846C106.063 46.6037 105.953 46.7133 105.844 46.9325C105.734 47.042 105.515 47.1516 105.296 47.2612C105.077 47.3707 104.748 47.3707 104.31 47.3707C103.871 47.3707 103.543 47.3707 103.324 47.2612C103.104 47.2612 102.885 47.042 102.776 46.8229L96.092 29.8395H95.8728L95.7633 46.1655C95.7633 46.3846 95.7633 46.6037 95.6537 46.8229C95.6537 46.9325 95.5441 47.042 95.4346 47.1516C95.325 47.2612 95.1058 47.2612 94.8867 47.2612C94.6676 47.2612 94.3388 47.2612 93.9006 47.2612C93.4623 47.2612 93.024 47.2612 92.6953 47.2612C92.3666 47.2612 92.1474 47.1516 92.0379 47.1516C91.9283 47.042 91.8187 46.9325 91.7092 46.8229C91.7092 46.7133 91.5996 46.4942 91.5996 46.1655L90.8326 21.0738ZM117.349 35.6467L120.307 21.1834C120.417 20.8547 120.417 20.6355 120.526 20.4164C120.636 20.1973 120.745 20.0877 120.964 19.9781C121.184 19.8686 121.512 19.759 121.841 19.759C122.17 19.759 122.718 19.759 123.265 19.759C124.252 19.759 124.909 19.8686 125.347 19.9781C125.786 20.0877 126.005 20.3068 126.005 20.7451C126.005 20.8547 126.005 20.9643 126.005 21.0738C126.005 21.1834 126.005 21.293 125.895 21.4025C125.895 21.5121 125.895 21.6217 125.786 21.7313C125.786 21.8408 125.676 21.9504 125.676 22.06L121.622 35.5371L125.347 44.9602C125.457 45.3985 125.566 45.7272 125.676 45.9463C125.786 46.1655 125.786 46.3846 125.786 46.6037C125.786 46.7133 125.786 46.8229 125.676 46.9325C125.676 47.042 125.566 47.042 125.347 47.1516C125.238 47.1516 125.019 47.2612 124.69 47.2612C124.471 47.2612 124.032 47.2612 123.594 47.2612C123.265 47.2612 122.937 47.2612 122.608 47.2612C122.389 47.2612 122.17 47.1516 122.06 47.042C121.951 46.9325 121.841 46.8229 121.731 46.6037C121.622 46.3846 121.512 46.1655 121.403 45.9463L117.349 35.6467ZM110.774 21.0738C110.774 20.7451 110.774 20.526 110.884 20.4164C110.994 20.1973 111.103 20.0877 111.322 19.9781C111.541 19.8686 111.87 19.8686 112.199 19.759C112.637 19.759 113.075 19.6494 113.733 19.6494C114.39 19.6494 114.938 19.6494 115.267 19.759C115.705 19.759 115.924 19.8686 116.143 19.9781C116.362 20.0877 116.472 20.1973 116.582 20.4164C116.691 20.6355 116.691 20.8547 116.691 21.0738L115.924 46.275C115.924 46.4942 115.924 46.7133 115.815 46.9325C115.815 47.042 115.705 47.1516 115.486 47.2612C115.376 47.3707 115.157 47.3707 114.829 47.3707C114.5 47.3707 114.171 47.3707 113.623 47.3707C113.075 47.3707 112.747 47.3707 112.418 47.3707C112.089 47.3707 111.87 47.2612 111.761 47.2612C111.651 47.2612 111.541 47.042 111.432 46.9325C111.432 46.8229 111.322 46.6037 111.322 46.275L110.774 21.0738Z" fill="#6A5B40"/>
<path d="M132.948 23.1545H129.989C129.661 23.1545 129.441 23.1545 129.332 23.0449C129.222 23.0449 129.113 22.9354 129.003 22.8258C128.894 22.7162 128.894 22.4971 128.894 22.3875C128.894 22.1684 128.894 21.9492 128.894 21.6205C128.894 21.2918 128.894 21.0727 128.894 20.8535C128.894 20.6344 129.003 20.5248 129.003 20.4152C129.113 20.3057 129.222 20.1961 129.332 20.1961C129.441 20.1961 129.661 20.0865 129.989 20.0865H135.468H135.796H141.713C142.042 20.0865 142.261 20.0865 142.371 20.1961C142.48 20.1961 142.699 20.3057 142.699 20.4152C142.809 20.5248 142.809 20.7439 142.809 20.8535C142.809 21.0727 142.809 21.2918 142.809 21.6205C142.809 21.9492 142.809 22.1684 142.809 22.3875C142.809 22.6066 142.809 22.7162 142.699 22.8258C142.59 22.9354 142.48 23.0449 142.371 23.0449C142.261 23.0449 142.042 23.1545 141.713 23.1545H138.755L138.097 46.1643C138.097 46.3834 138.097 46.6026 137.988 46.7121C137.988 46.8217 137.878 46.9313 137.659 47.0408C137.55 47.1504 137.33 47.1504 137.002 47.1504C136.673 47.1504 136.344 47.1504 135.796 47.1504C135.249 47.1504 134.92 47.1504 134.591 47.1504C134.263 47.1504 134.043 47.0408 133.934 47.0408C133.824 46.9313 133.715 46.8217 133.605 46.7121C133.605 46.6026 133.496 46.3834 133.496 46.1643L132.948 23.1545ZM146.425 25.2363C146.425 24.4693 146.534 23.7023 146.863 23.0449C147.192 22.3875 147.63 21.8397 148.178 21.2918C148.835 20.8535 149.602 20.4152 150.588 20.1961C151.575 19.977 152.78 19.7578 154.204 19.7578C155.629 19.7578 156.724 19.8674 157.711 20.1961C158.697 20.4152 159.573 20.8535 160.121 21.2918C160.779 21.7301 161.217 22.2779 161.546 23.0449C161.874 23.7023 161.984 24.4693 161.984 25.2363L161.546 42.3293C161.546 42.9867 161.326 43.6442 161.107 44.3016C160.779 44.959 160.34 45.5069 159.792 45.9451C159.245 46.3834 158.478 46.8217 157.491 47.0408C156.615 47.26 155.519 47.4791 154.204 47.4791C152.889 47.4791 151.794 47.3696 150.917 47.0408C150.041 46.8217 149.274 46.3834 148.616 45.9451C148.068 45.5069 147.63 44.959 147.301 44.3016C146.973 43.6442 146.863 42.9867 146.863 42.3293L146.425 25.2363ZM151.575 42.4389C151.575 42.8772 151.575 43.3155 151.684 43.5346C151.794 43.8633 151.903 44.0824 152.122 44.3016C152.342 44.5207 152.561 44.6303 152.889 44.6303C153.218 44.7399 153.656 44.7399 154.095 44.7399C154.533 44.7399 154.971 44.7399 155.3 44.6303C155.629 44.5207 155.848 44.4112 156.067 44.3016C156.286 44.0824 156.396 43.8633 156.505 43.5346C156.615 43.2059 156.615 42.8772 156.615 42.4389L156.177 24.6885C156.177 24.2502 156.067 23.8119 156.067 23.5928C155.957 23.2641 155.848 23.0449 155.629 22.9354C155.41 22.8258 155.19 22.7162 154.971 22.6066C154.752 22.6066 154.423 22.4971 154.095 22.4971C153.766 22.4971 153.437 22.4971 153.218 22.6066C152.999 22.6066 152.78 22.7162 152.561 22.9354C152.342 23.0449 152.232 23.2641 152.122 23.5928C152.013 23.9215 152.013 24.2502 152.013 24.6885L151.575 42.4389ZM165.819 21.2918C165.709 21.0727 165.709 20.8535 165.819 20.6344C165.928 20.4152 166.038 20.3057 166.257 20.1961C166.476 20.0865 166.805 19.977 167.243 19.977C167.681 19.977 168.229 19.8674 168.887 19.8674C169.544 19.8674 170.092 19.8674 170.53 19.977C170.969 19.977 171.188 20.0865 171.407 20.1961C171.626 20.3057 171.736 20.4152 171.845 20.6344C171.955 20.8535 171.955 21.0727 171.955 21.2918L172.941 42.5485H173.379L176.557 21.2918C176.557 21.0727 176.666 20.8535 176.666 20.6344C176.776 20.4152 176.885 20.3057 176.995 20.1961C177.214 20.0865 177.433 20.0865 177.762 19.977C178.091 19.977 178.529 19.8674 179.077 19.8674C179.625 19.8674 180.173 19.8674 180.501 19.977C180.83 19.977 181.159 20.0865 181.268 20.1961C181.487 20.3057 181.597 20.4152 181.597 20.6344C181.707 20.8535 181.706 21.0727 181.816 21.2918L184.994 42.5485H185.432L186.418 21.2918C186.418 21.0727 186.418 20.8535 186.528 20.6344C186.637 20.4152 186.747 20.3057 186.966 20.1961C187.185 20.0865 187.514 20.0865 187.842 19.977C188.281 19.977 188.719 19.8674 189.376 19.8674C190.034 19.8674 190.472 19.8674 190.91 19.977C191.349 19.977 191.677 20.0865 191.897 20.1961C192.116 20.3057 192.225 20.4152 192.335 20.6344C192.444 20.8535 192.444 21.0727 192.335 21.2918L188.062 46.0547C188.062 46.2739 187.952 46.493 187.842 46.6026C187.733 46.7121 187.623 46.8217 187.404 46.9313C187.185 47.0408 186.966 47.0408 186.637 47.0408C186.308 47.0408 185.98 47.0408 185.432 47.0408C184.774 47.0408 184.336 47.0408 183.898 47.0408C183.46 47.0408 183.131 46.9313 182.912 46.9313C182.693 46.8217 182.473 46.7121 182.364 46.6026C182.254 46.493 182.145 46.2739 182.145 46.0547L179.077 27.9756H178.748L175.68 46.0547C175.68 46.2739 175.571 46.493 175.461 46.6026C175.351 46.7121 175.132 46.8217 174.913 46.9313C174.694 47.0408 174.365 47.0408 174.037 47.0408C173.708 47.0408 173.16 47.0408 172.612 47.0408C172.064 47.0408 171.626 47.0408 171.297 47.0408C170.969 47.0408 170.749 46.9313 170.53 46.9313C170.311 46.8217 170.202 46.7121 170.092 46.6026C169.982 46.493 169.873 46.2739 169.873 46.0547L165.819 21.2918ZM196.279 21.2918C196.279 20.9631 196.279 20.7439 196.389 20.6344C196.389 20.4152 196.608 20.3057 196.718 20.1961C196.937 20.0865 197.156 20.0865 197.485 19.977C197.813 19.977 198.252 19.8674 198.799 19.8674C199.238 19.8674 199.566 19.8674 199.895 19.8674C200.224 19.8674 200.443 19.977 200.662 19.977C200.881 19.977 200.991 20.0865 201.1 20.1961C201.21 20.3057 201.32 20.4152 201.32 20.6344L207.346 36.9604H207.456L206.689 21.1822C206.689 20.8535 206.689 20.6344 206.798 20.5248C206.908 20.3057 207.017 20.1961 207.127 20.0865C207.346 19.977 207.565 19.977 207.894 19.8674C208.223 19.8674 208.661 19.7578 209.318 19.7578C209.976 19.7578 210.414 19.7578 210.852 19.8674C211.291 19.8674 211.51 19.977 211.729 20.0865C211.948 20.1961 212.058 20.3057 212.167 20.5248C212.277 20.7439 212.277 20.9631 212.277 21.1822L211.4 45.6164C211.4 45.8356 211.4 46.0547 211.291 46.2739C211.291 46.493 211.181 46.6026 211.071 46.8217C210.962 46.9313 210.743 47.0408 210.524 47.1504C210.304 47.26 209.976 47.26 209.537 47.26C209.099 47.26 208.77 47.26 208.551 47.1504C208.332 47.1504 208.113 46.9313 208.003 46.7121L201.539 30.0574H201.32L201.21 46.0547C201.21 46.2739 201.21 46.493 201.1 46.6026C201.1 46.7121 200.991 46.8217 200.881 46.9313C200.772 47.0408 200.553 47.0408 200.333 47.0408C200.114 47.0408 199.786 47.0408 199.347 47.0408C198.909 47.0408 198.471 47.0408 198.142 47.0408C197.813 47.0408 197.594 46.9313 197.485 46.9313C197.375 46.8217 197.265 46.7121 197.156 46.6026C197.156 46.493 197.046 46.2739 197.046 46.0547L196.279 21.2918Z" fill="#2A2A2A"/>
<path d="M61.6469 60.0499C61.2196 60.0499 60.8991 59.9431 60.6855 59.8363C60.365 59.7295 60.1513 59.5158 60.0445 59.3021C59.8308 59.0885 59.8308 58.768 59.8308 58.4475H60.7923C60.7923 58.6611 60.8991 58.8748 61.006 59.0885C61.2196 59.3021 61.4333 59.3021 61.6469 59.3021C61.8606 59.3021 62.0743 59.1953 62.2879 59.0885C62.3948 58.9816 62.5016 58.768 62.5016 58.5543C62.5016 58.3407 62.3948 58.127 62.2879 58.0202C62.1811 57.9133 61.9674 57.8065 61.7538 57.6997C61.5401 57.5928 61.3264 57.5928 61.1128 57.486C60.6855 57.3792 60.365 57.1655 60.1513 56.9518C59.9376 56.7382 59.8308 56.4177 59.8308 56.0972C59.8308 55.7767 59.9376 55.563 60.0445 55.3494C60.1513 55.1357 60.365 54.9221 60.6855 54.8152C60.8991 54.7084 61.2196 54.6016 61.5401 54.6016C61.8606 54.6016 62.1811 54.7084 62.3948 54.8152C62.6084 54.9221 62.8221 55.1357 63.0357 55.3494C63.1426 55.563 63.2494 55.8835 63.2494 56.0972H62.2879C62.2879 55.8835 62.1811 55.7767 62.0743 55.6699C61.9674 55.563 61.7538 55.4562 61.5401 55.4562C61.3264 55.4562 61.1128 55.4562 61.006 55.563C60.8991 55.6699 60.7923 55.7767 60.7923 55.9904C60.7923 56.204 60.8991 56.3109 61.006 56.4177C61.1128 56.5245 61.2196 56.6314 61.4333 56.6314C61.6469 56.7382 61.8606 56.7382 62.0743 56.845C62.2879 56.9518 62.6084 57.0587 62.8221 57.1655C63.0357 57.2723 63.2494 57.486 63.3562 57.5928C63.4631 57.8065 63.5699 58.0202 63.5699 58.3407C63.5699 58.6611 63.4631 58.8748 63.3562 59.0885C63.2494 59.3021 63.0357 59.5158 62.7153 59.6226C62.3948 60.05 62.0743 60.0499 61.6469 60.0499ZM69.3388 60.0499C68.8046 60.0499 68.3773 59.9431 67.95 59.7295C67.5227 59.5158 67.309 59.1953 67.0953 58.768C66.8817 58.3406 66.7748 57.9133 66.7748 57.3792C66.7748 56.845 66.8817 56.4177 67.0953 55.9904C67.309 55.563 67.6295 55.2425 67.95 55.0289C68.3773 54.8152 68.8046 54.7084 69.3388 54.7084C69.8729 54.7084 70.3003 54.8152 70.7276 55.0289C71.1549 55.2425 71.3686 55.563 71.5822 55.9904C71.7959 56.4177 71.9027 56.845 71.9027 57.3792C71.9027 57.9133 71.7959 58.3406 71.5822 58.768C71.3686 59.1953 71.0481 59.5158 70.7276 59.7295C70.4071 59.9431 69.8729 60.0499 69.3388 60.0499ZM69.3388 59.1953C69.8729 59.1953 70.1934 58.9816 70.5139 58.6611C70.8344 58.3407 70.9412 57.9133 70.9412 57.3792C70.9412 56.845 70.8344 56.4177 70.5139 56.0972C70.1934 55.7767 69.8729 55.563 69.3388 55.563C68.8046 55.563 68.4841 55.7767 68.1636 56.0972C67.8431 56.4177 67.7363 56.845 67.7363 57.3792C67.7363 57.9133 67.8431 58.3407 68.1636 58.6611C68.4841 59.0885 68.9115 59.1953 69.3388 59.1953ZM77.7784 60.0499C77.2443 60.0499 76.817 59.9431 76.3896 59.7295C76.0691 59.5158 75.7486 59.1953 75.535 58.768C75.3213 58.3406 75.2145 57.9133 75.2145 57.3792C75.2145 56.845 75.3213 56.4177 75.535 55.9904C75.7486 55.563 76.0691 55.2425 76.3896 55.0289C76.7101 54.8152 77.2443 54.7084 77.7784 54.7084C78.4194 54.7084 78.9536 54.8152 79.2741 55.1357C79.7014 55.4562 79.9151 55.8835 80.0219 56.4177H78.9536C78.8467 56.0972 78.7399 55.8835 78.5263 55.7767C78.3126 55.563 77.9921 55.563 77.6716 55.563C77.2443 55.563 76.817 55.7767 76.6033 56.0972C76.2828 56.4177 76.176 56.845 76.176 57.3792C76.176 57.9133 76.2828 58.3407 76.6033 58.6611C76.9238 58.9816 77.2443 59.0885 77.6716 59.0885C77.9921 59.0885 78.3126 58.9816 78.5263 58.8748C78.7399 58.768 78.8467 58.5543 78.9536 58.2338H80.0219C79.9151 58.768 79.7014 59.1953 79.2741 59.5158C78.9536 59.9431 78.4194 60.0499 77.7784 60.0499ZM83.5473 60.0499V54.9221H84.5088V60.0499H83.5473ZM87.8206 60.0499L89.7435 54.9221H90.8118L92.7348 60.0499H91.7733L91.346 58.8748H89.3162L88.8889 60.0499H87.8206ZM89.423 58.0202H90.9187L90.1708 55.8835L89.423 58.0202ZM95.9397 60.0499V54.9221H96.9012V59.3021H99.2515V60.0499H95.9397ZM107.05 60.0499V54.9221H109.08C109.614 54.9221 110.041 55.0289 110.255 55.3494C110.576 55.563 110.682 55.8835 110.682 56.3109C110.682 56.6314 110.576 56.845 110.469 57.0587C110.255 57.2723 110.041 57.3792 109.828 57.486C110.148 57.5928 110.362 57.6997 110.576 57.9133C110.789 58.127 110.896 58.4475 110.896 58.768C110.896 59.1953 110.789 59.5158 110.469 59.7295C110.148 59.9431 109.721 60.1568 109.187 60.1568H107.05V60.0499ZM108.012 57.0587H108.973C109.187 57.0587 109.4 56.9518 109.614 56.845C109.828 56.7382 109.828 56.5245 109.828 56.3109C109.828 56.0972 109.721 55.8835 109.614 55.7767C109.507 55.6699 109.294 55.563 108.973 55.563H108.012V57.0587ZM108.012 59.1953H109.08C109.4 59.1953 109.614 59.0885 109.721 58.9816C109.828 58.8748 109.935 58.6611 109.935 58.4475C109.935 58.2338 109.828 58.0202 109.721 57.9133C109.614 57.8065 109.294 57.6997 109.08 57.6997H108.012V59.1953ZM116.451 60.0499C116.024 60.0499 115.703 59.9431 115.383 59.8363C115.062 59.7295 114.849 59.409 114.635 59.1953C114.422 58.8748 114.422 58.5543 114.422 58.0202V54.8152H115.383V58.0202C115.383 58.4475 115.49 58.768 115.703 58.8748C115.917 59.0885 116.131 59.1953 116.558 59.1953C116.879 59.1953 117.199 59.0885 117.413 58.8748C117.626 58.6611 117.733 58.3407 117.733 58.0202V54.8152H118.695V58.0202C118.695 58.4475 118.588 58.8748 118.374 59.1953C118.161 59.5158 117.947 59.7295 117.626 59.8363C117.092 60.0499 116.772 60.0499 116.451 60.0499ZM123.395 60.0499V58.2338L121.686 54.9221H122.754L123.929 57.2723L125.105 54.9221H126.173L124.464 58.2338V60.0499H123.395ZM129.378 60.0499V54.9221H130.339V60.0499H129.378ZM133.972 60.0499V54.9221H134.933L137.39 58.5543V54.9221H138.352V60.0499H137.39L134.933 56.4177V60.0499H133.972ZM144.227 60.0499C143.693 60.0499 143.266 59.9431 142.945 59.7295C142.625 59.5158 142.304 59.1953 142.091 58.768C141.877 58.3406 141.77 57.9133 141.77 57.3792C141.77 56.845 141.877 56.4177 142.091 55.9904C142.304 55.563 142.625 55.2425 142.945 55.0289C143.373 54.8152 143.8 54.7084 144.334 54.7084C144.975 54.7084 145.403 54.8152 145.83 55.1357C146.257 55.4562 146.471 55.7767 146.578 56.3109H145.509C145.403 56.0972 145.296 55.8835 145.082 55.7767C144.868 55.6699 144.655 55.563 144.334 55.563C143.8 55.563 143.373 55.7767 143.159 56.0972C142.839 56.4177 142.732 56.845 142.732 57.486C142.732 58.0202 142.839 58.4475 143.159 58.768C143.48 59.0885 143.8 59.1953 144.334 59.1953C144.762 59.1953 145.189 59.0885 145.403 58.768C145.616 58.5543 145.83 58.127 145.83 57.8065H144.548V57.0587H146.791V59.9431H145.937L145.83 59.3021C145.616 59.5158 145.403 59.7295 145.189 59.8363C144.868 60.0499 144.548 60.0499 144.227 60.0499ZM156.299 60.0499C155.872 60.0499 155.551 59.9431 155.338 59.8363C155.017 59.7295 154.804 59.5158 154.697 59.3021C154.59 59.0885 154.483 58.768 154.483 58.4475C154.483 58.127 154.59 57.8065 154.804 57.5928C155.017 57.2723 155.231 57.0587 155.658 56.9518C155.551 56.7382 155.445 56.6314 155.338 56.4177C155.231 56.3109 155.231 56.0972 155.231 55.8835C155.231 55.6699 155.338 55.4562 155.445 55.2425C155.551 55.0289 155.765 54.9221 155.979 54.8152C156.192 54.7084 156.513 54.6016 156.727 54.6016C157.047 54.6016 157.261 54.7084 157.474 54.8152C157.688 54.9221 157.902 55.0289 158.009 55.2425C158.115 55.4562 158.222 55.6699 158.115 55.8835H157.261C157.261 55.6699 157.154 55.563 157.047 55.4562C156.94 55.3494 156.833 55.3494 156.62 55.3494C156.406 55.3494 156.299 55.3494 156.192 55.4562C156.086 55.563 156.086 55.6699 156.086 55.7767C156.086 55.8835 156.086 55.9904 156.192 56.204C156.299 56.3109 156.406 56.5245 156.513 56.6314L158.009 58.0202C158.115 57.8065 158.222 57.6997 158.329 57.486L158.543 57.1655H159.504L159.291 57.6997C159.077 58.127 158.863 58.4475 158.65 58.6611L159.825 59.8363H158.65L158.115 59.3021C157.902 59.5158 157.581 59.7295 157.261 59.8363C157.047 60.0499 156.727 60.0499 156.299 60.0499ZM155.445 58.4475C155.445 58.6611 155.551 58.8748 155.658 59.0885C155.872 59.3021 156.086 59.3021 156.406 59.3021C156.833 59.3021 157.154 59.1953 157.474 58.8748L156.086 57.486C155.872 57.5928 155.658 57.6997 155.551 57.9133C155.445 58.0202 155.445 58.2338 155.445 58.4475ZM169.226 60.0499C168.799 60.0499 168.478 59.9431 168.264 59.8363C167.944 59.7295 167.73 59.5158 167.623 59.3021C167.41 59.0885 167.41 58.768 167.41 58.4475H168.371C168.371 58.6611 168.478 58.8748 168.585 59.0885C168.799 59.3021 169.012 59.3021 169.226 59.3021C169.44 59.3021 169.653 59.1953 169.867 59.0885C169.974 58.9816 170.081 58.768 170.081 58.5543C170.081 58.3407 169.974 58.127 169.867 58.0202C169.76 57.9133 169.546 57.8065 169.333 57.6997C169.119 57.5928 168.905 57.5928 168.692 57.486C168.264 57.3792 167.944 57.1655 167.73 56.9518C167.517 56.7382 167.41 56.4177 167.41 56.0972C167.41 55.7767 167.517 55.563 167.623 55.3494C167.73 55.1357 167.944 54.9221 168.264 54.8152C168.478 54.7084 168.799 54.6016 169.119 54.6016C169.44 54.6016 169.76 54.7084 169.974 54.8152C170.187 54.9221 170.401 55.1357 170.615 55.3494C170.721 55.563 170.828 55.8835 170.828 56.0972H169.867C169.867 55.8835 169.76 55.7767 169.653 55.6699C169.546 55.563 169.333 55.4562 169.119 55.4562C168.905 55.4562 168.692 55.4562 168.585 55.563C168.478 55.6699 168.371 55.7767 168.371 55.9904C168.371 56.204 168.478 56.3109 168.585 56.4177C168.692 56.5245 168.799 56.6314 169.012 56.6314C169.226 56.7382 169.44 56.7382 169.653 56.845C169.867 56.9518 170.187 57.0587 170.401 57.1655C170.615 57.2723 170.828 57.486 170.935 57.5928C171.042 57.8065 171.149 58.0202 171.149 58.3407C171.149 58.6611 171.042 58.8748 170.935 59.0885C170.828 59.3021 170.615 59.5158 170.294 59.6226C169.974 60.05 169.653 60.0499 169.226 60.0499ZM174.567 60.0499V54.9221H177.986V55.6699H175.529V57.0587H177.772V57.8065H175.529V59.3021H177.986V60.0499H174.567ZM181.405 60.0499V54.9221H182.366V59.3021H184.61V60.0499H181.405ZM188.135 60.0499V54.9221H189.096V59.3021H191.34V60.0499H188.135ZM194.865 60.0499V54.9221H195.827V60.0499H194.865ZM199.459 60.0499V54.9221H200.421L202.878 58.5543V54.9221H203.839V60.0499H202.878L200.421 56.4177V60.0499H199.459ZM209.715 60.0499C209.181 60.0499 208.753 59.9431 208.433 59.7295C208.112 59.5158 207.792 59.1953 207.578 58.768C207.365 58.3406 207.258 57.9133 207.258 57.3792C207.258 56.845 207.365 56.4177 207.578 55.9904C207.792 55.563 208.112 55.2425 208.433 55.0289C208.86 54.8152 209.288 54.7084 209.822 54.7084C210.463 54.7084 210.89 54.8152 211.317 55.1357C211.745 55.4562 211.958 55.7767 212.065 56.3109H210.997C210.89 56.0972 210.783 55.8835 210.569 55.7767C210.356 55.6699 210.142 55.563 209.822 55.563C209.288 55.563 208.86 55.7767 208.647 56.0972C208.326 56.4177 208.219 56.845 208.219 57.486C208.219 58.0202 208.326 58.4475 208.647 58.768C208.967 59.0885 209.288 59.1953 209.822 59.1953C210.249 59.1953 210.676 59.0885 210.89 58.768C211.104 58.5543 211.317 58.127 211.317 57.8065H210.035V57.0587H212.279V59.9431H211.424L211.317 59.3021C211.104 59.5158 210.89 59.7295 210.676 59.8363C210.463 60.0499 210.142 60.0499 209.715 60.0499Z" fill="#3B3B3B"/>
<path d="M24.0244 53.2617H46.9637" stroke="#6A5B40" stroke-width="2.49582" stroke-miterlimit="10" stroke-linecap="round"/>
<path d="M1.29559 59.1674C2.2448 60.2748 3.61588 60.9604 5.09243 60.9604H43.3245C44.7483 60.9604 46.1721 60.3276 47.1213 59.1674C48.0706 58.06 48.5452 56.5307 48.387 55.0542L44.2737 17.033C44.221 16.4002 43.6936 15.9256 43.0608 15.9256H34.7289V11.0214C34.7289 4.95699 30.0356 0 24.2348 0C18.4341 0 13.6881 4.90425 13.6881 10.9687V15.8729H5.3561C4.7233 15.8729 4.19596 16.3475 4.14322 16.9803L0.0299793 55.0015C-0.128222 56.5307 0.346383 58.06 1.29559 59.1674ZM16.1138 10.9687C16.1138 6.32807 19.7525 2.53123 24.1821 2.53123C28.6645 2.53123 32.2504 6.32807 32.2504 10.9687V15.8729H16.1138V10.9687ZM46.3303 54.6323L46.4358 55.7397C46.5413 56.5307 46.2776 57.3217 45.7503 57.9546C45.2229 58.5874 44.5374 58.9038 43.7464 58.9038H4.61783C3.82682 58.9038 3.14128 58.5874 2.61394 57.9546C2.0866 57.3217 1.87567 56.5835 1.9284 55.7397L5.98891 17.9823H13.4244V26.7361C13.4244 27.4744 14.0045 28.0544 14.69 28.0544C15.3755 28.0544 15.9556 27.4744 15.9556 26.7361V17.9823H32.5141V26.7361C32.5141 27.4744 33.0941 28.0544 33.7797 28.0544C34.4652 28.0544 35.0453 27.4744 35.0453 26.7361V17.9823H42.4808L46.1721 52.0484L46.3303 54.6323Z" fill="#2A2A2A"/>
<path d="M33.9331 47.1951C32.9839 48.1444 31.7183 48.619 30.4 48.619C29.0816 48.5662 27.816 48.0389 26.9195 47.0369L25.232 45.1913C23.9664 43.8202 23.5973 41.9745 24.0719 40.2343L27.025 43.3983L27.9215 44.2948L28.7652 45.1913C29.7144 46.1932 31.2964 46.2459 32.2984 45.2967C32.5093 45.0331 32.7203 44.8221 32.8785 44.5057C32.9839 44.1893 33.0894 43.8729 33.0894 43.5565C33.0894 43.2401 33.0367 42.871 32.9312 42.5546C32.8257 42.2382 32.6148 41.9745 32.4039 41.7108L31.5601 40.7616L27.7633 36.6484C29.4508 36.2792 31.2437 36.7011 32.5093 38.0722L34.2495 39.9179C35.146 40.9198 35.6734 42.2382 35.6206 43.5565C35.4624 44.9803 34.8824 46.2459 33.9331 47.1951ZM21.8571 36.0683L27.8687 42.5546C28.3433 43.0819 29.1344 43.0819 29.609 42.6073C30.0836 42.08 30.0836 41.2889 29.6617 40.8143L23.65 34.3281C23.1754 33.8007 22.3844 33.8007 21.9098 34.2753C21.4352 34.7499 21.4352 35.5937 21.8571 36.0683ZM19.2731 35.1191L23.9664 40.1288C22.279 40.5507 20.486 40.0761 19.2204 38.705L17.4802 36.8593C16.5837 35.8574 16.0564 34.539 16.1091 33.2207C16.1618 31.8496 16.6892 30.584 17.6384 29.6348C18.5876 28.6855 19.8532 28.2109 21.1715 28.2109C22.4899 28.2637 23.7555 28.791 24.652 29.793L26.3395 31.6386C27.6051 33.0097 27.9742 34.8554 27.4996 36.5956L22.8063 31.5859C21.8571 30.5312 20.2751 30.5312 19.2731 31.4804C18.3766 32.4824 18.3239 34.0644 19.2731 35.1191Z" fill="#6A5B40"/>
<path d="M15.5586 54.5283H18.5644C19.25 54.5283 19.7773 53.9482 19.7773 53.2627C19.7773 52.5771 19.25 51.9971 18.5644 51.9971H15.5586C14.873 51.9971 14.3457 52.5771 14.3457 53.2627C14.3457 54.001 14.9258 54.5283 15.5586 54.5283Z" fill="#6A5B40"/>
<path d="M217.589 26.173V21.3203H215.953V20.6406H220.055V21.3203H218.427V26.173H217.589Z" fill="#2A2A2A"/>
<path d="M221.866 26.173V20.6406H222.854L224.727 24.3236L226.593 20.6406H227.581V26.173H226.743V22.087L225.052 25.3827H224.403L222.704 22.0949V26.173H221.866Z" fill="#2A2A2A"/>
</svg>
