<svg width="1057" height="570" viewBox="0 0 1057 570" fill="none" xmlns="http://www.w3.org/2000/svg">
<g clip-path="url(#clip0_433_1604)">
<rect width="1057" height="570" rx="50.4373" fill="#9F8A62"/>
<path d="M180.578 61.3193C180.91 49.8751 190.456 40.8667 201.9 41.1985L869.136 60.5453C880.58 60.8771 889.589 70.4235 889.257 81.8677L878.862 440.351C878.53 451.796 868.984 460.804 857.54 460.472L190.304 441.125C178.86 440.794 169.852 431.247 170.184 419.803L180.578 61.3193Z" fill="#EEECE7"/>
<path d="M204.156 112.753L204.828 89.5448L213.415 89.7938C215.272 89.8476 216.799 90.2016 217.997 90.8557C219.195 91.5098 220.076 92.3871 220.642 93.4874C221.207 94.5878 221.47 95.8121 221.431 97.1604C221.394 98.4424 221.072 99.6166 220.466 100.683C219.861 101.727 218.941 102.563 217.706 103.191C216.471 103.797 214.904 104.072 213.003 104.017L208.66 103.891L208.399 112.876L204.156 112.753ZM208.76 100.443L212.838 100.561C214.319 100.604 215.389 100.315 216.049 99.6921C216.731 99.0482 217.088 98.1627 217.121 97.0354C217.154 95.8861 216.849 94.9813 216.204 94.3211C215.583 93.6394 214.531 93.2771 213.05 93.2341L208.972 93.1159L208.76 100.443ZM224.526 113.344L225.003 96.899L228.783 97.0086L229.091 100.103C229.719 99.0598 230.55 98.2433 231.585 97.6539C232.642 97.043 233.867 96.7578 235.26 96.7982L235.13 101.274L233.936 101.239C233.008 101.213 232.175 101.332 231.437 101.598C230.699 101.865 230.11 102.345 229.67 103.04C229.251 103.736 229.024 104.714 228.987 105.974L228.77 113.467L224.526 113.344ZM245.591 114.353C244 114.306 242.574 113.9 241.313 113.134C240.074 112.368 239.097 111.333 238.383 110.029C237.692 108.704 237.37 107.19 237.42 105.488C237.469 103.786 237.888 102.305 238.677 101.045C239.466 99.7628 240.501 98.7752 241.782 98.0823C243.085 97.3901 244.533 97.067 246.124 97.1132C247.693 97.1587 249.097 97.5644 250.336 98.3303C251.597 99.0969 252.573 100.143 253.265 101.468C253.979 102.772 254.312 104.275 254.262 105.977C254.213 107.679 253.794 109.171 253.004 110.453C252.238 111.714 251.203 112.69 249.9 113.383C248.597 114.075 247.16 114.398 245.591 114.353ZM245.698 110.672C246.803 110.704 247.776 110.323 248.618 109.529C249.46 108.713 249.905 107.487 249.952 105.852C250 104.216 249.626 102.977 248.832 102.136C248.039 101.272 247.1 100.825 246.017 100.793C244.89 100.761 243.905 101.152 243.063 101.969C242.244 102.763 241.81 103.979 241.763 105.614C241.716 107.25 242.078 108.499 242.849 109.362C243.643 110.204 244.593 110.64 245.698 110.672ZM265.698 114.936C264.15 114.891 262.78 114.475 261.586 113.688C260.392 112.901 259.46 111.846 258.791 110.521C258.121 109.197 257.811 107.705 257.859 106.048C257.907 104.39 258.303 102.93 259.047 101.669C259.793 100.385 260.784 99.3965 262.02 98.7023C263.258 97.9861 264.65 97.6504 266.197 97.6952C267.435 97.7311 268.511 97.9946 269.426 98.4857C270.341 98.9768 271.074 99.6506 271.624 100.507L271.905 90.826L276.149 90.9491L275.456 114.82L271.677 114.711L271.281 112.343C270.729 113.057 270.003 113.678 269.103 114.205C268.225 114.732 267.09 114.976 265.698 114.936ZM266.7 111.248C268.071 111.288 269.2 110.867 270.088 109.986C270.999 109.083 271.476 107.914 271.517 106.477C271.559 105.04 271.151 103.856 270.293 102.924C269.458 101.971 268.355 101.474 266.985 101.434C265.637 101.395 264.507 101.816 263.597 102.697C262.686 103.577 262.21 104.736 262.169 106.173C262.127 107.609 262.535 108.805 263.392 109.759C264.249 110.713 265.352 111.209 266.7 111.248ZM286.265 115.532C284.209 115.472 282.636 114.785 281.546 113.471C280.478 112.157 279.98 110.262 280.052 107.786L280.321 98.5029L284.532 98.625L284.274 107.51C284.233 108.925 284.489 110.016 285.042 110.785C285.595 111.553 286.49 111.955 287.728 111.991C288.899 112.025 289.873 111.633 290.649 110.814C291.447 109.997 291.868 108.837 291.911 107.334L292.157 98.8461L296.401 98.9692L295.924 115.414L292.178 115.305L291.927 112.511C291.39 113.468 290.628 114.221 289.638 114.767C288.671 115.314 287.547 115.569 286.265 115.532ZM308.657 116.181C306.977 116.133 305.507 115.725 304.246 114.958C302.985 114.192 301.998 113.146 301.284 111.82C300.593 110.494 300.271 108.992 300.32 107.312C300.369 105.632 300.777 104.151 301.544 102.868C302.333 101.586 303.38 100.598 304.683 99.9061C305.986 99.2139 307.477 98.8921 309.157 98.9409C311.257 99.0017 313.009 99.6056 314.414 100.752C315.819 101.877 316.693 103.407 317.035 105.341L312.559 105.211C312.361 104.409 311.937 103.778 311.287 103.316C310.659 102.834 309.903 102.579 309.019 102.554C307.848 102.52 306.84 102.933 305.997 103.793C305.153 104.654 304.709 105.869 304.663 107.438C304.618 109.007 304.991 110.246 305.783 111.154C306.576 112.062 307.557 112.532 308.729 112.566C309.613 112.592 310.382 112.393 311.036 111.97C311.712 111.547 312.172 110.93 312.417 110.118L316.893 110.248C316.441 112.093 315.48 113.559 314.011 114.644C312.542 115.73 310.757 116.242 308.657 116.181ZM327.924 116.342C326.2 116.292 324.831 115.832 323.816 114.962C322.802 114.092 322.326 112.585 322.388 110.441L322.595 103.279L319.777 103.198L319.88 99.65L322.698 99.7317L323.323 95.3365L327.07 95.4452L326.942 99.8547L331.385 99.9835L331.282 103.531L326.839 103.402L326.631 110.597C326.608 111.393 326.757 111.95 327.08 112.269C327.425 112.567 328.018 112.728 328.858 112.752L330.913 112.811L330.809 116.425L327.924 116.342ZM350.663 117.399C349.115 117.354 347.745 116.939 346.551 116.152C345.357 115.365 344.425 114.309 343.756 112.985C343.086 111.66 342.776 110.169 342.824 108.511C342.872 106.854 343.268 105.394 344.013 104.132C344.758 102.849 345.749 101.86 346.985 101.166C348.223 100.45 349.615 100.114 351.162 100.159C352.4 100.195 353.477 100.458 354.391 100.949C355.306 101.44 356.039 102.114 356.589 102.971L356.87 93.2896L361.114 93.4127L360.422 117.284L356.642 117.174L356.246 114.807C355.694 115.521 354.968 116.141 354.068 116.668C353.19 117.196 352.055 117.44 350.663 117.399ZM351.665 113.712C353.036 113.752 354.165 113.331 355.053 112.45C355.964 111.547 356.441 110.377 356.482 108.941C356.524 107.504 356.116 106.32 355.258 105.388C354.423 104.434 353.32 103.938 351.95 103.898C350.602 103.859 349.472 104.28 348.562 105.16C347.652 106.041 347.175 107.2 347.134 108.636C347.092 110.073 347.5 111.268 348.357 112.222C349.214 113.176 350.317 113.673 351.665 113.712ZM373.053 118.048C371.396 118 369.936 117.604 368.674 116.86C367.413 116.115 366.436 115.091 365.744 113.788C365.052 112.485 364.73 110.994 364.779 109.314C364.828 107.612 365.226 106.108 365.971 104.802C366.739 103.497 367.764 102.498 369.045 101.806C370.348 101.091 371.862 100.759 373.586 100.809C375.2 100.856 376.615 101.251 377.832 101.994C379.05 102.737 379.983 103.738 380.632 104.995C381.304 106.231 381.619 107.601 381.575 109.104C381.568 109.347 381.55 109.601 381.52 109.866C381.512 110.131 381.493 110.407 381.463 110.693L368.963 110.331C369.015 111.616 369.427 112.634 370.202 113.387C370.999 114.14 371.972 114.533 373.121 114.566C373.983 114.591 374.707 114.424 375.292 114.065C375.901 113.685 376.358 113.189 376.663 112.578L380.973 112.703C380.633 113.733 380.086 114.669 379.332 115.51C378.6 116.329 377.697 116.966 376.622 117.422C375.569 117.878 374.379 118.087 373.053 118.048ZM373.486 104.257C372.447 104.227 371.522 104.499 370.709 105.072C369.896 105.624 369.362 106.493 369.107 107.681L377.296 107.918C377.261 106.833 376.888 105.96 376.177 105.297C375.466 104.635 374.569 104.288 373.486 104.257ZM392.257 118.207C390.533 118.157 389.164 117.697 388.149 116.827C387.135 115.957 386.658 114.45 386.721 112.306L386.928 105.145L384.11 105.063L384.213 101.515L387.031 101.597L387.656 97.2019L391.403 97.3105L391.275 101.72L395.718 101.849L395.615 105.396L391.172 105.268L390.963 112.462C390.94 113.258 391.09 113.815 391.413 114.134C391.758 114.432 392.351 114.593 393.191 114.617L395.246 114.677L395.141 118.291L392.257 118.207ZM404.874 118.971C403.459 118.93 402.305 118.675 401.412 118.207C400.519 117.717 399.863 117.089 399.442 116.325C399.022 115.561 398.825 114.725 398.851 113.819C398.896 112.294 399.528 111.074 400.749 110.158C401.97 109.242 403.775 108.819 406.162 108.888L410.339 109.009L410.351 108.611C410.383 107.484 410.087 106.646 409.461 106.097C408.836 105.548 408.048 105.259 407.097 105.232C406.235 105.207 405.478 105.395 404.825 105.796C404.172 106.175 403.757 106.761 403.579 107.552L399.435 107.432C399.58 106.241 400.008 105.214 400.719 104.35C401.452 103.486 402.377 102.838 403.496 102.406C404.615 101.952 405.86 101.745 407.23 101.785C409.573 101.852 411.402 102.492 412.716 103.702C414.031 104.913 414.657 106.59 414.595 108.734L414.301 118.846L410.687 118.741L410.367 116.078C409.855 116.948 409.148 117.657 408.247 118.206C407.369 118.756 406.244 119.011 404.874 118.971ZM405.931 115.683C407.147 115.719 408.098 115.348 408.784 114.572C409.493 113.796 409.952 112.825 410.163 111.658L406.549 111.554C405.422 111.521 404.609 111.707 404.11 112.113C403.613 112.497 403.355 112.987 403.338 113.584C403.319 114.225 403.548 114.73 404.024 115.097C404.5 115.465 405.136 115.66 405.931 115.683ZM421.521 100.042C420.748 100.02 420.113 99.7689 419.618 99.29C419.146 98.8118 418.919 98.219 418.94 97.5117C418.96 96.8044 419.22 96.2368 419.719 95.8088C420.241 95.3594 420.889 95.1459 421.662 95.1683C422.436 95.1908 423.059 95.4411 423.532 95.9194C424.028 96.3762 424.265 96.9582 424.245 97.6655C424.224 98.3728 423.953 98.9512 423.431 99.4006C422.931 99.8507 422.295 100.064 421.521 100.042ZM418.848 118.978L419.325 102.533L423.569 102.656L423.092 119.101L418.848 118.978ZM427.853 119.239L428.545 95.3679L432.789 95.4909L432.097 119.362L427.853 119.239ZM443.55 120.093C442.091 120.05 440.816 119.781 439.724 119.285C438.633 118.766 437.768 118.078 437.13 117.219C436.491 116.359 436.121 115.375 436.021 114.266L440.298 114.39C440.412 115.035 440.749 115.598 441.31 116.079C441.894 116.538 442.651 116.781 443.579 116.808C444.507 116.835 445.187 116.667 445.618 116.303C446.071 115.94 446.304 115.516 446.318 115.029C446.339 114.322 446.043 113.838 445.431 113.577C444.82 113.294 443.965 113.015 442.867 112.739C442.164 112.564 441.452 112.355 440.729 112.113C440.006 111.871 439.339 111.575 438.73 111.226C438.144 110.855 437.67 110.399 437.31 109.857C436.95 109.294 436.782 108.614 436.805 107.819C436.847 106.36 437.457 105.15 438.636 104.188C439.836 103.228 441.486 102.778 443.586 102.839C445.531 102.895 447.065 103.393 448.188 104.333C449.333 105.273 449.993 106.542 450.168 108.14L446.156 108.023C445.948 106.801 445.049 106.166 443.457 106.12C442.662 106.097 442.038 106.234 441.587 106.53C441.158 106.828 440.937 107.208 440.924 107.672C440.91 108.159 441.219 108.555 441.852 108.861C442.484 109.167 443.327 109.457 444.381 109.731C445.523 110.029 446.564 110.358 447.505 110.717C448.469 111.055 449.228 111.552 449.785 112.21C450.341 112.845 450.603 113.749 450.569 114.92C450.561 115.938 450.269 116.847 449.693 117.649C449.117 118.451 448.303 119.069 447.25 119.503C446.198 119.937 444.965 120.134 443.55 120.093ZM465.366 120.327L465.899 101.959L462.06 102.744L462.154 99.4947L467.83 97.1706L470.449 97.2466L469.776 120.455L465.366 120.327Z" fill="black"/>
<rect x="198.596" y="155.167" width="661.297" height="99.5055" rx="10.3652" transform="rotate(1.66085 198.596 155.167)" fill="white"/>
<rect x="199.602" y="156.233" width="659.224" height="97.4325" rx="9.32864" transform="rotate(1.66085 199.602 156.233)" stroke="#6A5B40" stroke-opacity="0.6" stroke-width="2.07303"/>
<path d="M223.928 213.948L224.517 193.64L231.189 193.834C232.775 193.88 234.073 194.179 235.083 194.731C236.092 195.283 236.826 196.01 237.284 196.914C237.761 197.818 237.983 198.831 237.951 199.953C237.919 201.055 237.648 202.044 237.139 202.92C236.63 203.796 235.855 204.489 234.814 205.001C233.774 205.494 232.451 205.717 230.846 205.67L226.61 205.547L226.365 214.018L223.928 213.948ZM226.67 203.487L230.847 203.609C232.472 203.656 233.633 203.351 234.329 202.693C235.046 202.017 235.421 201.08 235.456 199.881C235.491 198.662 235.171 197.704 234.494 197.007C233.837 196.291 232.697 195.91 231.072 195.863L226.895 195.742L226.67 203.487ZM240.914 214.44L241.331 200.051L243.536 200.115L243.659 202.877C244.132 201.942 244.83 201.207 245.756 200.673C246.681 200.138 247.811 199.89 249.145 199.929L249.071 202.482L248.404 202.463C247.553 202.438 246.765 202.57 246.041 202.859C245.317 203.128 244.732 203.614 244.285 204.318C243.839 205.021 243.598 206.001 243.561 207.258L243.351 214.511L240.914 214.44ZM257.793 215.278C256.439 215.239 255.229 214.894 254.164 214.244C253.099 213.593 252.264 212.698 251.658 211.558C251.072 210.399 250.801 209.055 250.846 207.527C250.89 206 251.248 204.684 251.918 203.581C252.59 202.458 253.476 201.603 254.577 201.016C255.697 200.429 256.934 200.155 258.288 200.194C259.642 200.233 260.851 200.578 261.916 201.229C262.981 201.879 263.807 202.783 264.393 203.942C264.998 205.083 265.279 206.417 265.235 207.945C265.19 209.473 264.833 210.798 264.161 211.92C263.491 213.024 262.595 213.869 261.475 214.456C260.374 215.043 259.146 215.317 257.793 215.278ZM257.853 213.189C258.685 213.213 259.464 213.033 260.192 212.647C260.919 212.262 261.517 211.669 261.985 210.87C262.454 210.071 262.705 209.071 262.74 207.872C262.775 206.673 262.581 205.661 262.16 204.836C261.758 204.011 261.205 203.386 260.502 202.959C259.798 202.532 259.04 202.307 258.227 202.283C257.396 202.259 256.616 202.439 255.889 202.825C255.162 203.21 254.564 203.803 254.095 204.602C253.627 205.401 253.375 206.401 253.341 207.6C253.306 208.799 253.499 209.811 253.92 210.636C254.342 211.461 254.894 212.087 255.579 212.513C256.283 212.94 257.041 213.166 257.853 213.189ZM275.263 215.784C273.832 215.743 272.584 215.378 271.52 214.689C270.476 214 269.67 213.077 269.104 211.918C268.557 210.761 268.304 209.456 268.346 208.006C268.388 206.555 268.725 205.278 269.357 204.174C269.99 203.05 270.847 202.184 271.93 201.577C273.012 200.95 274.279 200.658 275.73 200.7C276.909 200.734 277.947 201.006 278.842 201.516C279.737 202.026 280.423 202.723 280.901 203.608L281.159 194.702L283.596 194.773L282.99 215.66L280.785 215.596L280.622 213.211C280.138 213.893 279.452 214.503 278.566 215.038C277.679 215.574 276.578 215.823 275.263 215.784ZM275.586 213.674C276.553 213.702 277.41 213.505 278.158 213.081C278.926 212.639 279.524 212.017 279.954 211.217C280.403 210.417 280.643 209.475 280.675 208.392C280.706 207.309 280.521 206.355 280.119 205.531C279.736 204.707 279.174 204.061 278.433 203.595C277.712 203.109 276.867 202.852 275.9 202.824C274.953 202.797 274.095 203.004 273.327 203.447C272.579 203.87 271.981 204.482 271.532 205.282C271.102 206.082 270.872 207.024 270.84 208.107C270.809 209.19 270.984 210.144 271.367 210.968C271.769 211.792 272.331 212.448 273.052 212.933C273.794 213.4 274.638 213.647 275.586 213.674ZM292.535 216.285C290.833 216.236 289.494 215.684 288.518 214.63C287.542 213.556 287.086 211.946 287.148 209.799L287.392 201.387L289.829 201.457L289.593 209.609C289.506 212.607 290.69 214.141 293.146 214.212C294.404 214.249 295.451 213.834 296.289 212.968C297.147 212.083 297.6 210.809 297.649 209.146L297.865 201.69L300.302 201.761L299.884 216.15L297.68 216.086L297.58 213.499C297.109 214.395 296.421 215.091 295.516 215.588C294.631 216.085 293.637 216.317 292.535 216.285ZM310.831 216.816C309.458 216.776 308.229 216.431 307.145 215.78C306.08 215.11 305.245 214.205 304.64 213.065C304.054 211.906 303.783 210.572 303.826 209.064C303.87 207.555 304.218 206.249 304.869 205.145C305.54 204.023 306.427 203.168 307.528 202.58C308.649 201.974 309.896 201.691 311.269 201.73C312.971 201.78 314.389 202.266 315.524 203.189C316.677 204.113 317.388 205.324 317.654 206.822L315.159 206.75C314.991 205.855 314.537 205.155 313.797 204.649C313.057 204.124 312.185 203.847 311.179 203.818C310.367 203.795 309.597 203.976 308.87 204.361C308.142 204.746 307.544 205.339 307.076 206.138C306.608 206.938 306.356 207.937 306.321 209.136C306.287 210.335 306.48 211.347 306.901 212.172C307.322 212.998 307.885 213.633 308.588 214.08C309.292 214.506 310.05 214.732 310.862 214.755C311.868 214.784 312.755 214.568 313.523 214.106C314.292 213.625 314.786 212.933 315.006 212.03L317.501 212.102C317.169 213.544 316.399 214.703 315.193 215.578C313.987 216.452 312.533 216.865 310.831 216.816ZM326.393 216.919C325.078 216.88 324.052 216.531 323.317 215.871C322.581 215.211 322.237 214.049 322.285 212.386L322.515 204.466L320.02 204.394L320.08 202.334L322.575 202.407L322.994 198.964L325.112 199.025L325.011 202.477L329.247 202.6L329.187 204.66L324.952 204.537L324.722 212.457C324.696 213.366 324.862 213.99 325.219 214.329C325.578 214.65 326.221 214.823 327.15 214.85L328.658 214.894L328.598 216.982L326.393 216.919ZM330.988 219.81L338.992 195.101L341.4 195.171L333.396 219.88L330.988 219.81ZM343.736 223.809L344.338 203.038L346.543 203.102L346.706 205.487C347.19 204.804 347.866 204.195 348.733 203.659C349.62 203.123 350.73 202.875 352.065 202.913C353.496 202.955 354.734 203.32 355.779 204.008C356.823 204.697 357.619 205.62 358.166 206.778C358.733 207.936 358.995 209.241 358.953 210.691C358.911 212.142 358.573 213.429 357.941 214.552C357.328 215.657 356.471 216.523 355.369 217.149C354.286 217.756 353.03 218.039 351.599 217.998C350.419 217.964 349.372 217.691 348.457 217.181C347.562 216.671 346.886 215.974 346.428 215.09L346.173 223.88L343.736 223.809ZM351.399 215.872C352.366 215.901 353.223 215.703 353.971 215.279C354.719 214.836 355.318 214.215 355.767 213.415C356.216 212.615 356.456 211.674 356.488 210.591C356.519 209.508 356.334 208.554 355.932 207.729C355.53 206.904 354.968 206.259 354.246 205.793C353.525 205.307 352.68 205.051 351.713 205.023C350.746 204.995 349.889 205.202 349.14 205.645C348.393 206.068 347.794 206.68 347.345 207.48C346.896 208.28 346.656 209.222 346.624 210.305C346.593 211.388 346.778 212.341 347.18 213.166C347.582 213.991 348.144 214.646 348.865 215.131C349.587 215.597 350.432 215.844 351.399 215.872ZM369.015 218.503C367.661 218.464 366.452 218.119 365.387 217.468C364.322 216.818 363.486 215.923 362.88 214.783C362.295 213.624 362.024 212.28 362.068 210.752C362.113 209.225 362.47 207.909 363.141 206.806C363.812 205.683 364.698 204.828 365.799 204.241C366.92 203.654 368.157 203.38 369.51 203.419C370.864 203.458 372.074 203.803 373.139 204.453C374.204 205.104 375.029 206.008 375.615 207.167C376.221 208.308 376.502 209.642 376.457 211.17C376.413 212.697 376.055 214.023 375.384 215.145C374.713 216.248 373.818 217.094 372.697 217.68C371.596 218.268 370.369 218.542 369.015 218.503ZM369.076 216.414C369.907 216.438 370.687 216.258 371.414 215.872C372.141 215.487 372.739 214.894 373.208 214.095C373.676 213.296 373.928 212.296 373.962 211.097C373.997 209.898 373.804 208.886 373.383 208.061C372.981 207.236 372.428 206.61 371.724 206.184C371.02 205.757 370.262 205.531 369.45 205.508C368.618 205.484 367.839 205.664 367.111 206.05C366.384 206.435 365.786 207.028 365.318 207.827C364.849 208.626 364.598 209.626 364.563 210.825C364.528 212.024 364.722 213.036 365.143 213.861C365.564 214.686 366.117 215.312 366.801 215.738C367.505 216.165 368.263 216.391 369.076 216.414ZM385.47 218.98C383.749 218.93 382.331 218.453 381.215 217.55C380.099 216.647 379.466 215.447 379.316 213.953L381.811 214.025C381.943 214.784 382.321 215.453 382.943 216.032C383.585 216.593 384.457 216.889 385.559 216.921C386.584 216.951 387.345 216.76 387.84 216.348C388.337 215.918 388.594 215.402 388.611 214.803C388.636 213.933 388.334 213.343 387.704 213.035C387.094 212.726 386.221 212.44 385.087 212.175C384.318 211.998 383.551 211.753 382.786 211.44C382.02 211.128 381.384 210.703 380.877 210.165C380.371 209.609 380.13 208.895 380.155 208.025C380.192 206.768 380.686 205.756 381.637 204.99C382.608 204.205 383.896 203.836 385.502 203.883C387.03 203.927 388.266 204.35 389.21 205.152C390.175 205.935 390.714 207.034 390.828 208.451L388.42 208.381C388.344 207.643 388.042 207.063 387.512 206.641C387.002 206.201 386.303 205.968 385.413 205.942C384.543 205.916 383.86 206.081 383.366 206.434C382.891 206.788 382.645 207.265 382.628 207.864C382.611 208.445 382.898 208.908 383.488 209.254C384.097 209.601 384.921 209.905 385.958 210.168C386.842 210.387 387.677 210.653 388.461 210.966C389.265 211.26 389.911 211.695 390.398 212.271C390.904 212.827 391.142 213.628 391.112 214.672C391.094 215.969 390.569 217.028 389.539 217.849C388.529 218.652 387.172 219.029 385.47 218.98ZM399.84 219.048C398.524 219.01 397.499 218.661 396.763 218.001C396.028 217.341 395.684 216.179 395.732 214.516L395.962 206.596L393.467 206.524L393.526 204.464L396.021 204.536L396.441 201.093L398.558 201.155L398.458 204.607L402.694 204.73L402.634 206.789L398.398 206.667L398.169 214.586C398.142 215.495 398.308 216.12 398.666 216.459C399.025 216.779 399.668 216.953 400.596 216.98L402.105 217.023L402.044 219.112L399.84 219.048ZM413.713 219.45L414.319 198.563L416.756 198.634L416.15 219.521L413.713 219.45ZM422.465 202.109C421.981 202.095 421.58 201.929 421.26 201.61C420.96 201.272 420.817 200.861 420.831 200.378C420.844 199.914 421.01 199.531 421.329 199.231C421.667 198.931 422.077 198.788 422.561 198.802C423.025 198.816 423.417 198.982 423.737 199.301C424.056 199.62 424.21 200.011 424.196 200.475C424.182 200.959 424.006 201.36 423.668 201.68C423.33 201.979 422.929 202.123 422.465 202.109ZM420.737 219.654L421.154 205.265L423.591 205.336L423.174 219.725L420.737 219.654ZM427.748 219.857L428.165 205.468L430.37 205.532L430.44 208.118C430.931 207.223 431.619 206.527 432.504 206.03C433.39 205.533 434.384 205.3 435.486 205.332C437.188 205.382 438.527 205.943 439.502 207.016C440.497 208.071 440.964 209.672 440.902 211.819L440.658 220.232L438.221 220.161L438.457 212.009C438.544 209.011 437.35 207.477 434.874 207.405C433.636 207.369 432.589 207.794 431.731 208.678C430.892 209.544 430.449 210.809 430.401 212.472L430.185 219.928L427.748 219.857ZM444.681 220.348L445.287 199.461L447.724 199.532L447.359 212.093L453.424 206.201L456.412 206.287L449.842 212.601L456.807 220.7L453.703 220.61L447.334 212.963L447.118 220.419L444.681 220.348Z" fill="#0A0A0A" fill-opacity="0.6"/>
<rect x="190.426" y="293.882" width="286.078" height="99.5055" rx="49.7527" transform="rotate(1.66085 190.426 293.882)" fill="#6A5B40"/>
<path d="M246.409 355.9C244.959 355.858 243.652 355.539 242.488 354.944C241.345 354.33 240.442 353.423 239.78 352.223C239.137 351.024 238.842 349.515 238.895 347.697L239.262 335.02L242.337 335.109L241.969 347.815C241.917 349.595 242.305 350.913 243.132 351.769C243.959 352.625 245.097 353.074 246.548 353.116C247.979 353.158 249.132 352.775 250.007 351.968C250.882 351.161 251.346 349.868 251.397 348.089L251.766 335.382L254.841 335.471L254.473 348.149C254.421 349.967 254.019 351.455 253.27 352.614C252.539 353.774 251.566 354.626 250.35 355.172C249.154 355.699 247.84 355.941 246.409 355.9ZM257.895 362.272L258.498 341.501L261.254 341.58L261.508 343.824C261.992 343.16 262.647 342.579 263.475 342.08C264.302 341.582 265.354 341.351 266.631 341.388C268.023 341.428 269.242 341.793 270.286 342.481C271.331 343.17 272.137 344.093 272.703 345.251C273.289 346.41 273.561 347.715 273.519 349.166C273.477 350.616 273.13 351.903 272.478 353.026C271.846 354.131 270.988 354.996 269.905 355.623C268.823 356.23 267.576 356.513 266.164 356.472C265.043 356.44 264.053 356.189 263.196 355.719C262.357 355.249 261.699 354.601 261.219 353.774L260.971 362.361L257.895 362.272ZM265.719 353.788C267.035 353.827 268.131 353.413 269.007 352.548C269.885 351.664 270.344 350.496 270.386 349.046C270.414 348.098 270.245 347.251 269.879 346.505C269.514 345.759 268.999 345.173 268.333 344.747C267.669 344.302 266.892 344.067 266.002 344.041C264.687 344.003 263.591 344.426 262.713 345.31C261.855 346.195 261.406 347.353 261.364 348.784C261.322 350.235 261.704 351.427 262.509 352.36C263.334 353.274 264.404 353.75 265.719 353.788ZM276.637 356.428L277.242 335.54L280.318 335.63L279.712 356.517L276.637 356.428ZM290.326 357.173C288.953 357.133 287.724 356.788 286.64 356.137C285.575 355.467 284.74 354.563 284.135 353.422C283.529 352.263 283.249 350.929 283.293 349.42C283.336 347.912 283.694 346.606 284.364 345.502C285.055 344.38 285.96 343.526 287.081 342.939C288.202 342.333 289.439 342.049 290.793 342.089C292.166 342.128 293.385 342.483 294.449 343.153C295.534 343.804 296.379 344.709 296.984 345.868C297.609 347.009 297.899 348.334 297.856 349.842C297.812 351.351 297.445 352.666 296.754 353.788C296.083 354.891 295.188 355.746 294.067 356.352C292.946 356.939 291.7 357.213 290.326 357.173ZM290.403 354.533C291.138 354.554 291.82 354.39 292.45 354.041C293.099 353.692 293.627 353.165 294.034 352.461C294.442 351.737 294.662 350.834 294.694 349.751C294.725 348.668 294.558 347.763 294.192 347.036C293.845 346.29 293.359 345.725 292.731 345.339C292.123 344.953 291.451 344.75 290.716 344.729C289.981 344.707 289.289 344.871 288.641 345.22C288.011 345.57 287.492 346.106 287.084 346.83C286.677 347.534 286.457 348.428 286.426 349.511C286.394 350.594 286.561 351.509 286.927 352.255C287.293 352.982 287.78 353.538 288.388 353.923C288.996 354.308 289.668 354.512 290.403 354.533ZM305.836 357.623C304.618 357.587 303.618 357.355 302.837 356.926C302.056 356.497 301.481 355.948 301.113 355.279C300.746 354.591 300.574 353.851 300.597 353.058C300.638 351.665 301.211 350.578 302.318 349.798C303.424 349.017 304.983 348.655 306.995 348.714L310.766 348.823L310.774 348.562C310.806 347.44 310.521 346.59 309.918 346.011C309.335 345.433 308.56 345.13 307.593 345.102C306.742 345.077 305.991 345.268 305.341 345.675C304.71 346.063 304.315 346.662 304.156 347.47L301.081 347.381C301.208 346.339 301.582 345.46 302.203 344.742C302.844 344.006 303.634 343.458 304.573 343.098C305.533 342.719 306.573 342.546 307.695 342.579C309.706 342.637 311.248 343.214 312.32 344.31C313.392 345.386 313.901 346.833 313.849 348.651L313.592 357.499L310.923 357.422L310.734 354.948C310.304 355.73 309.695 356.38 308.906 356.899C308.117 357.418 307.093 357.659 305.836 357.623ZM306.518 355.146C307.349 355.17 308.051 354.996 308.623 354.626C309.215 354.237 309.676 353.718 310.004 353.069C310.352 352.421 310.576 351.702 310.676 350.911L307.253 350.812C306.035 350.776 305.158 350.964 304.624 351.374C304.109 351.785 303.842 352.31 303.823 352.948C303.804 353.605 304.031 354.135 304.503 354.535C304.995 354.918 305.667 355.121 306.518 355.146ZM323.724 358.141C322.331 358.101 321.113 357.737 320.068 357.048C319.023 356.36 318.218 355.436 317.651 354.278C317.085 353.12 316.823 351.815 316.865 350.365C316.907 348.914 317.244 347.637 317.876 346.532C318.509 345.409 319.366 344.543 320.448 343.936C321.55 343.309 322.798 343.017 324.19 343.057C325.331 343.09 326.321 343.341 327.159 343.811C328.016 344.281 328.675 344.929 329.135 345.755L329.387 337.052L332.462 337.141L331.857 358.029L329.101 357.949L328.846 355.706C328.363 356.369 327.707 356.95 326.88 357.449C326.052 357.948 325 358.178 323.724 358.141ZM324.352 355.488C325.667 355.527 326.754 355.103 327.612 354.218C328.489 353.334 328.949 352.176 328.99 350.745C329.032 349.295 328.641 348.112 327.816 347.198C327.01 346.265 325.95 345.779 324.635 345.741C323.32 345.703 322.224 346.126 321.346 347.01C320.47 347.875 320.01 349.033 319.968 350.484C319.941 351.431 320.11 352.278 320.475 353.024C320.841 353.77 321.356 354.366 322.02 354.811C322.705 355.237 323.482 355.463 324.352 355.488ZM345.28 341.288C344.7 341.271 344.221 341.083 343.845 340.723C343.488 340.345 343.317 339.885 343.333 339.344C343.349 338.802 343.545 338.363 343.923 338.025C344.32 337.669 344.809 337.499 345.389 337.516C345.97 337.533 346.438 337.731 346.795 338.109C347.172 338.468 347.352 338.918 347.336 339.46C347.321 340.002 347.114 340.45 346.717 340.807C346.339 341.144 345.86 341.304 345.28 341.288ZM343.246 358.359L343.663 343.97L346.738 344.059L346.321 358.448L343.246 358.359ZM350.381 358.566L350.798 344.177L353.525 344.256L353.727 346.294C354.213 345.573 354.839 345.01 355.605 344.607C356.391 344.204 357.287 344.017 358.293 344.046C360.575 344.112 362.135 345.057 362.972 346.882C363.518 346.065 364.234 345.428 365.118 344.97C366.022 344.512 366.986 344.298 368.011 344.328C369.81 344.38 371.206 344.962 372.199 346.075C373.193 347.188 373.659 348.817 373.596 350.964L373.357 359.232L370.282 359.143L370.512 351.194C370.593 348.409 369.57 346.986 367.442 346.924C366.359 346.893 365.458 347.273 364.738 348.065C364.037 348.858 363.665 350.008 363.622 351.517L363.406 358.944L360.331 358.854L360.562 350.906C360.642 348.121 359.609 346.697 357.463 346.635C356.399 346.604 355.507 346.985 354.787 347.777C354.087 348.569 353.715 349.72 353.671 351.228L353.456 358.655L350.381 358.566ZM381.818 359.826C380.6 359.791 379.6 359.558 378.819 359.129C378.038 358.7 377.463 358.151 377.095 357.482C376.728 356.794 376.556 356.054 376.579 355.261C376.619 353.868 377.193 352.782 378.3 352.001C379.406 351.22 380.965 350.859 382.977 350.917L386.748 351.026L386.755 350.765C386.788 349.643 386.503 348.793 385.9 348.214C385.317 347.636 384.542 347.333 383.575 347.305C382.724 347.28 381.973 347.471 381.323 347.878C380.692 348.267 380.297 348.865 380.138 349.673L377.063 349.584C377.19 348.542 377.564 347.663 378.185 346.945C378.826 346.209 379.616 345.661 380.555 345.301C381.515 344.922 382.555 344.749 383.677 344.782C385.688 344.84 387.23 345.417 388.301 346.513C389.374 347.589 389.883 349.036 389.83 350.854L389.574 359.702L386.905 359.625L386.715 357.152C386.286 357.933 385.677 358.583 384.888 359.102C384.098 359.621 383.075 359.862 381.818 359.826ZM382.5 357.349C383.331 357.373 384.033 357.2 384.605 356.829C385.197 356.44 385.657 355.921 385.986 355.272C386.334 354.624 386.558 353.905 386.658 353.114L383.235 353.015C382.017 352.979 381.14 353.167 380.606 353.577C380.09 353.988 379.824 354.513 379.805 355.151C379.786 355.809 380.013 356.338 380.485 356.739C380.977 357.121 381.649 357.324 382.5 357.349ZM399.176 355.568C398.422 355.546 397.728 355.438 397.095 355.246L395.812 356.428C396.021 356.57 396.279 356.693 396.586 356.799C396.892 356.905 397.325 357.004 397.883 357.098C398.442 357.192 399.204 357.291 400.169 357.396C402.078 357.626 403.448 358.13 404.277 358.909C405.106 359.669 405.503 360.668 405.467 361.905C405.443 362.756 405.187 363.552 404.701 364.293C404.234 365.054 403.51 365.652 402.53 366.088C401.568 366.544 400.343 366.751 398.853 366.707C396.842 366.649 395.219 366.215 393.984 365.405C392.768 364.615 392.183 363.446 392.228 361.899C392.245 361.299 392.417 360.704 392.744 360.114C393.09 359.543 393.618 359.007 394.33 358.505C393.928 358.319 393.576 358.125 393.272 357.922C392.988 357.701 392.733 357.481 392.507 357.261L392.528 356.565L395.096 354.085C394.003 353.085 393.479 351.802 393.524 350.235C393.552 349.288 393.799 348.434 394.266 347.673C394.753 346.893 395.439 346.284 396.323 345.845C397.206 345.406 398.257 345.205 399.476 345.24C400.288 345.263 401.039 345.401 401.729 345.654L407.095 345.809L407.037 347.84L404.479 347.911C404.921 348.717 405.127 349.604 405.099 350.571C405.071 351.538 404.814 352.402 404.327 353.162C403.86 353.923 403.184 354.522 402.301 354.961C401.436 355.401 400.395 355.603 399.176 355.568ZM399.246 353.16C400.136 353.185 400.858 352.974 401.413 352.526C401.988 352.058 402.288 351.39 402.313 350.519C402.339 349.63 402.078 348.945 401.531 348.464C401.003 347.984 400.294 347.732 399.404 347.706C398.495 347.679 397.754 347.89 397.179 348.338C396.624 348.787 396.334 349.456 396.308 350.345C396.283 351.216 396.534 351.9 397.062 352.4C397.609 352.88 398.337 353.133 399.246 353.16ZM395.137 361.693C395.113 362.524 395.463 363.154 396.186 363.581C396.908 364.028 397.821 364.268 398.923 364.3C399.987 364.33 400.854 364.123 401.525 363.678C402.196 363.252 402.542 362.662 402.564 361.908C402.58 361.347 402.372 360.857 401.939 360.438C401.505 360.039 400.671 359.773 399.436 359.64C398.509 359.555 397.69 359.444 396.977 359.307C396.29 359.655 395.814 360.038 395.55 360.456C395.287 360.875 395.149 361.287 395.137 361.693ZM415.575 360.805C414.163 360.764 412.915 360.418 411.83 359.767C410.766 359.097 409.94 358.193 409.354 357.053C408.768 355.913 408.496 354.599 408.539 353.11C408.583 351.601 408.921 350.285 409.554 349.161C410.206 348.038 411.082 347.173 412.184 346.567C413.305 345.96 414.591 345.678 416.041 345.72C417.453 345.761 418.672 346.116 419.698 346.784C420.724 347.434 421.512 348.289 422.062 349.35C422.612 350.411 422.869 351.57 422.832 352.827C422.827 353.021 422.811 353.233 422.785 353.465C422.779 353.677 422.762 353.919 422.735 354.189L411.537 353.864C411.593 355.26 412.017 356.337 412.808 357.095C413.619 357.835 414.566 358.22 415.649 358.252C416.519 358.277 417.25 358.105 417.841 357.735C418.453 357.346 418.913 356.817 419.223 356.149L422.298 356.238C421.872 357.581 421.066 358.69 419.879 359.565C418.711 360.441 417.277 360.854 415.575 360.805ZM415.939 348.243C414.914 348.214 413.996 348.497 413.185 349.093C412.375 349.669 411.865 350.564 411.655 351.777L419.778 352.013C419.753 350.89 419.382 349.988 418.666 349.31C417.95 348.631 417.041 348.275 415.939 348.243Z" fill="white"/>
<g filter="url(#filter0_d_433_1604)">
<path d="M165 97.4897C165 85.761 174.508 76.2529 186.237 76.2529H870.061C881.789 76.2529 891.297 85.761 891.297 97.4897V464.886C891.297 476.615 881.789 486.123 870.061 486.123H186.237C174.508 486.123 165 476.615 165 464.886V97.4897Z" fill="#EEECE7"/>
<path d="M870.061 75.722H186.237C174.215 75.722 164.469 85.4677 164.469 97.4897V464.886C164.469 476.908 174.215 486.653 186.237 486.653H870.061C882.083 486.653 891.828 476.908 891.828 464.886V97.4897C891.828 85.4677 882.083 75.722 870.061 75.722Z" stroke="#6A5B40" stroke-width="1.06184"/>
</g>
<path d="M190.671 149.727V125.941H199.471C201.374 125.941 202.949 126.259 204.195 126.893C205.44 127.527 206.369 128.399 206.981 129.509C207.592 130.619 207.898 131.865 207.898 133.247C207.898 134.561 207.604 135.773 207.015 136.883C206.426 137.97 205.508 138.853 204.263 139.533C203.017 140.19 201.42 140.518 199.471 140.518H195.02V149.727H190.671ZM195.02 136.985H199.2C200.717 136.985 201.805 136.656 202.462 135.999C203.141 135.32 203.481 134.402 203.481 133.247C203.481 132.069 203.141 131.151 202.462 130.495C201.805 129.815 200.717 129.475 199.2 129.475H195.02V136.985ZM211.548 149.727V132.873H215.422L215.83 136.033C216.441 134.946 217.268 134.085 218.31 133.451C219.375 132.794 220.621 132.465 222.048 132.465V137.052H220.825C219.873 137.052 219.024 137.2 218.276 137.494C217.529 137.789 216.94 138.298 216.509 139.023C216.101 139.748 215.898 140.756 215.898 142.047V149.727H211.548ZM233.148 150.134C231.518 150.134 230.045 149.761 228.731 149.013C227.44 148.265 226.409 147.235 225.639 145.921C224.892 144.584 224.518 143.044 224.518 141.3C224.518 139.556 224.903 138.027 225.673 136.713C226.443 135.376 227.474 134.334 228.765 133.587C230.079 132.839 231.551 132.465 233.182 132.465C234.791 132.465 236.241 132.839 237.532 133.587C238.846 134.334 239.876 135.376 240.624 136.713C241.394 138.027 241.779 139.556 241.779 141.3C241.779 143.044 241.394 144.584 240.624 145.921C239.876 147.235 238.846 148.265 237.532 149.013C236.218 149.761 234.757 150.134 233.148 150.134ZM233.148 146.363C234.281 146.363 235.266 145.944 236.105 145.105C236.943 144.245 237.362 142.976 237.362 141.3C237.362 139.624 236.943 138.366 236.105 137.528C235.266 136.667 234.292 136.237 233.182 136.237C232.027 136.237 231.03 136.667 230.192 137.528C229.377 138.366 228.969 139.624 228.969 141.3C228.969 142.976 229.377 144.245 230.192 145.105C231.03 145.944 232.016 146.363 233.148 146.363ZM253.755 150.134C252.169 150.134 250.753 149.749 249.507 148.979C248.262 148.209 247.276 147.155 246.551 145.819C245.826 144.482 245.464 142.965 245.464 141.266C245.464 139.567 245.826 138.06 246.551 136.747C247.276 135.41 248.262 134.368 249.507 133.621C250.753 132.85 252.169 132.465 253.755 132.465C255.023 132.465 256.133 132.703 257.085 133.179C258.036 133.655 258.806 134.323 259.395 135.184V125.262H263.745V149.727H259.871L259.395 147.314C258.852 148.062 258.127 148.719 257.221 149.285C256.337 149.851 255.182 150.134 253.755 150.134ZM254.672 146.329C256.077 146.329 257.221 145.864 258.104 144.936C259.01 143.984 259.463 142.772 259.463 141.3C259.463 139.827 259.01 138.627 258.104 137.698C257.221 136.747 256.077 136.271 254.672 136.271C253.29 136.271 252.146 136.735 251.24 137.664C250.334 138.593 249.881 139.793 249.881 141.266C249.881 142.738 250.334 143.95 251.24 144.902C252.146 145.853 253.29 146.329 254.672 146.329ZM274.833 150.134C272.727 150.134 271.096 149.477 269.94 148.164C268.808 146.85 268.241 144.924 268.241 142.387V132.873H272.557V141.979C272.557 143.429 272.851 144.539 273.44 145.309C274.029 146.08 274.958 146.465 276.226 146.465C277.427 146.465 278.412 146.034 279.183 145.173C279.975 144.313 280.372 143.112 280.372 141.572V132.873H284.721V149.727H280.882L280.542 146.872C280.021 147.869 279.262 148.662 278.265 149.251C277.291 149.84 276.147 150.134 274.833 150.134ZM297.783 150.134C296.061 150.134 294.543 149.761 293.229 149.013C291.916 148.265 290.874 147.223 290.103 145.887C289.356 144.55 288.982 143.021 288.982 141.3C288.982 139.578 289.356 138.049 290.103 136.713C290.874 135.376 291.916 134.334 293.229 133.587C294.543 132.839 296.061 132.465 297.783 132.465C299.935 132.465 301.747 133.032 303.219 134.164C304.692 135.274 305.632 136.815 306.039 138.785H301.452C301.226 137.97 300.773 137.336 300.093 136.883C299.436 136.407 298.655 136.169 297.749 136.169C296.548 136.169 295.529 136.622 294.691 137.528C293.852 138.434 293.433 139.691 293.433 141.3C293.433 142.908 293.852 144.165 294.691 145.071C295.529 145.978 296.548 146.431 297.749 146.431C298.655 146.431 299.436 146.204 300.093 145.751C300.773 145.298 301.226 144.652 301.452 143.814H306.039C305.632 145.717 304.692 147.246 303.219 148.401C301.747 149.557 299.935 150.134 297.783 150.134ZM317.517 149.727C315.75 149.727 314.334 149.296 313.269 148.435C312.205 147.575 311.672 146.046 311.672 143.848V136.509H308.784V132.873H311.672L312.182 128.354H316.022V132.873H320.575V136.509H316.022V143.882C316.022 144.698 316.191 145.264 316.531 145.581C316.894 145.876 317.505 146.023 318.366 146.023H320.473V149.727H317.517ZM340.832 150.134C339.246 150.134 337.831 149.749 336.585 148.979C335.339 148.209 334.354 147.155 333.629 145.819C332.904 144.482 332.541 142.965 332.541 141.266C332.541 139.567 332.904 138.06 333.629 136.747C334.354 135.41 335.339 134.368 336.585 133.621C337.831 132.85 339.246 132.465 340.832 132.465C342.101 132.465 343.211 132.703 344.162 133.179C345.113 133.655 345.884 134.323 346.473 135.184V125.262H350.822V149.727H346.948L346.473 147.314C345.929 148.062 345.204 148.719 344.298 149.285C343.415 149.851 342.259 150.134 340.832 150.134ZM341.75 146.329C343.154 146.329 344.298 145.864 345.181 144.936C346.088 143.984 346.541 142.772 346.541 141.3C346.541 139.827 346.088 138.627 345.181 137.698C344.298 136.747 343.154 136.271 341.75 136.271C340.368 136.271 339.224 136.735 338.318 137.664C337.412 138.593 336.959 139.793 336.959 141.266C336.959 142.738 337.412 143.95 338.318 144.902C339.224 145.853 340.368 146.329 341.75 146.329ZM363.78 150.134C362.081 150.134 360.574 149.772 359.26 149.047C357.947 148.322 356.916 147.303 356.168 145.989C355.421 144.675 355.047 143.157 355.047 141.436C355.047 139.691 355.409 138.14 356.134 136.781C356.882 135.421 357.901 134.368 359.192 133.621C360.506 132.85 362.047 132.465 363.814 132.465C365.467 132.465 366.928 132.828 368.197 133.553C369.465 134.278 370.451 135.274 371.153 136.543C371.878 137.789 372.24 139.182 372.24 140.722C372.24 140.971 372.229 141.232 372.206 141.504C372.206 141.776 372.195 142.059 372.172 142.353H359.362C359.453 143.667 359.906 144.698 360.721 145.445C361.56 146.193 362.568 146.567 363.746 146.567C364.629 146.567 365.365 146.374 365.954 145.989C366.566 145.581 367.019 145.06 367.313 144.426H371.731C371.413 145.491 370.881 146.465 370.134 147.348C369.409 148.209 368.503 148.888 367.415 149.387C366.351 149.885 365.139 150.134 363.78 150.134ZM363.814 135.999C362.749 135.999 361.809 136.305 360.993 136.917C360.178 137.506 359.657 138.412 359.43 139.635H367.823C367.755 138.525 367.347 137.641 366.6 136.985C365.852 136.328 364.923 135.999 363.814 135.999ZM383.449 149.727C381.682 149.727 380.266 149.296 379.201 148.435C378.137 147.575 377.604 146.046 377.604 143.848V136.509H374.716V132.873H377.604L378.114 128.354H381.954V132.873H386.507V136.509H381.954V143.882C381.954 144.698 382.124 145.264 382.463 145.581C382.826 145.876 383.437 146.023 384.298 146.023H386.405V149.727H383.449ZM396.391 150.134C394.941 150.134 393.752 149.908 392.823 149.455C391.895 148.979 391.204 148.356 390.751 147.586C390.298 146.816 390.071 145.966 390.071 145.037C390.071 143.474 390.683 142.206 391.906 141.232C393.129 140.258 394.964 139.771 397.411 139.771H401.692V139.363C401.692 138.208 401.363 137.358 400.707 136.815C400.05 136.271 399.234 135.999 398.26 135.999C397.377 135.999 396.606 136.214 395.95 136.645C395.293 137.052 394.885 137.664 394.726 138.48H390.479C390.592 137.256 391 136.192 391.702 135.286C392.427 134.379 393.356 133.689 394.488 133.213C395.621 132.714 396.89 132.465 398.294 132.465C400.695 132.465 402.587 133.066 403.969 134.266C405.35 135.467 406.041 137.166 406.041 139.363V149.727H402.338L401.93 147.008C401.431 147.914 400.729 148.662 399.823 149.251C398.94 149.84 397.796 150.134 396.391 150.134ZM397.377 146.736C398.623 146.736 399.585 146.329 400.265 145.513C400.967 144.698 401.409 143.69 401.59 142.489H397.886C396.731 142.489 395.904 142.704 395.406 143.135C394.908 143.542 394.658 144.052 394.658 144.664C394.658 145.321 394.908 145.83 395.406 146.193C395.904 146.555 396.561 146.736 397.377 146.736ZM412.876 130.257C412.083 130.257 411.426 130.019 410.905 129.543C410.407 129.067 410.158 128.467 410.158 127.742C410.158 127.017 410.407 126.428 410.905 125.975C411.426 125.5 412.083 125.262 412.876 125.262C413.669 125.262 414.314 125.5 414.813 125.975C415.334 126.428 415.594 127.017 415.594 127.742C415.594 128.467 415.334 129.067 414.813 129.543C414.314 130.019 413.669 130.257 412.876 130.257ZM410.701 149.727V132.873H415.051V149.727H410.701ZM419.93 149.727V125.262H424.279V149.727H419.93ZM436.029 150.134C434.534 150.134 433.22 149.896 432.087 149.421C430.955 148.922 430.049 148.243 429.369 147.382C428.689 146.521 428.282 145.525 428.146 144.392H432.529C432.665 145.049 433.027 145.615 433.616 146.091C434.228 146.544 435.01 146.77 435.961 146.77C436.912 146.77 437.603 146.578 438.034 146.193C438.487 145.808 438.713 145.366 438.713 144.868C438.713 144.143 438.396 143.656 437.762 143.407C437.128 143.135 436.244 142.874 435.111 142.625C434.387 142.466 433.65 142.274 432.903 142.047C432.155 141.821 431.464 141.538 430.83 141.198C430.219 140.835 429.72 140.382 429.335 139.839C428.95 139.272 428.757 138.582 428.757 137.766C428.757 136.271 429.346 135.014 430.524 133.994C431.725 132.975 433.401 132.465 435.553 132.465C437.547 132.465 439.132 132.93 440.31 133.858C441.511 134.787 442.224 136.067 442.451 137.698H438.339C438.09 136.452 437.15 135.829 435.519 135.829C434.704 135.829 434.069 135.988 433.616 136.305C433.186 136.622 432.971 137.018 432.971 137.494C432.971 137.993 433.299 138.389 433.956 138.683C434.613 138.978 435.485 139.25 436.573 139.499C437.75 139.771 438.826 140.077 439.801 140.416C440.797 140.733 441.59 141.221 442.179 141.877C442.768 142.512 443.062 143.429 443.062 144.63C443.085 145.672 442.813 146.612 442.247 147.45C441.681 148.288 440.865 148.945 439.801 149.421C438.736 149.896 437.479 150.134 436.029 150.134ZM458.376 149.727V130.902L454.468 131.82V128.49L460.211 125.941H462.895V149.727H458.376Z" fill="black"/>
<rect x="186.237" y="193.055" width="677.453" height="101.936" rx="10.6184" fill="white"/>
<rect x="187.299" y="194.117" width="675.329" height="99.8128" rx="9.55654" stroke="#6A5B40" stroke-opacity="0.6" stroke-width="2.12368"/>
<path d="M213.922 251.785V230.973H220.76C222.385 230.973 223.723 231.241 224.774 231.776C225.824 232.311 226.597 233.035 227.093 233.946C227.608 234.858 227.866 235.889 227.866 237.038C227.866 238.168 227.618 239.189 227.122 240.101C226.627 241.012 225.854 241.746 224.803 242.301C223.753 242.836 222.405 243.104 220.76 243.104H216.419V251.785H213.922ZM216.419 240.993H220.7C222.365 240.993 223.545 240.646 224.238 239.952C224.952 239.238 225.309 238.267 225.309 237.038C225.309 235.79 224.952 234.818 224.238 234.125C223.545 233.411 222.365 233.054 220.7 233.054H216.419V240.993ZM231.33 251.785V237.038H233.59L233.798 239.863C234.254 238.892 234.948 238.119 235.879 237.544C236.811 236.969 237.96 236.682 239.328 236.682V239.298H238.644C237.772 239.298 236.969 239.457 236.236 239.774C235.503 240.071 234.918 240.586 234.482 241.32C234.046 242.053 233.828 243.064 233.828 244.352V251.785H231.33ZM248.639 252.142C247.251 252.142 246.002 251.825 244.892 251.191C243.782 250.556 242.9 249.664 242.246 248.515C241.612 247.345 241.295 245.978 241.295 244.412C241.295 242.846 241.622 241.488 242.276 240.339C242.93 239.169 243.812 238.267 244.922 237.633C246.052 236.999 247.311 236.682 248.698 236.682C250.085 236.682 251.334 236.999 252.444 237.633C253.554 238.267 254.426 239.169 255.061 240.339C255.715 241.488 256.042 242.846 256.042 244.412C256.042 245.978 255.715 247.345 255.061 248.515C254.406 249.664 253.515 250.556 252.385 251.191C251.275 251.825 250.026 252.142 248.639 252.142ZM248.639 250.001C249.491 250.001 250.284 249.793 251.017 249.377C251.75 248.961 252.345 248.336 252.801 247.504C253.257 246.671 253.485 245.641 253.485 244.412C253.485 243.183 253.257 242.152 252.801 241.32C252.365 240.487 251.78 239.863 251.047 239.447C250.313 239.03 249.531 238.822 248.698 238.822C247.846 238.822 247.053 239.03 246.32 239.447C245.586 239.863 244.992 240.487 244.536 241.32C244.08 242.152 243.852 243.183 243.852 244.412C243.852 245.641 244.08 246.671 244.536 247.504C244.992 248.336 245.576 248.961 246.29 249.377C247.023 249.793 247.806 250.001 248.639 250.001ZM266.544 252.142C265.077 252.142 263.788 251.805 262.679 251.131C261.588 250.457 260.736 249.535 260.122 248.366C259.527 247.197 259.23 245.869 259.23 244.382C259.23 242.895 259.537 241.577 260.151 240.428C260.766 239.258 261.618 238.347 262.708 237.692C263.798 237.019 265.087 236.682 266.573 236.682C267.782 236.682 268.853 236.929 269.784 237.425C270.716 237.92 271.439 238.614 271.955 239.506V230.378H274.452V251.785H272.193L271.955 249.347C271.479 250.061 270.795 250.705 269.903 251.28C269.011 251.855 267.891 252.142 266.544 252.142ZM266.811 249.972C267.802 249.972 268.674 249.744 269.428 249.288C270.201 248.812 270.795 248.158 271.211 247.325C271.648 246.493 271.866 245.522 271.866 244.412C271.866 243.302 271.648 242.331 271.211 241.498C270.795 240.666 270.201 240.021 269.428 239.566C268.674 239.09 267.802 238.852 266.811 238.852C265.84 238.852 264.968 239.09 264.195 239.566C263.442 240.021 262.847 240.666 262.411 241.498C261.995 242.331 261.787 243.302 261.787 244.412C261.787 245.522 261.995 246.493 262.411 247.325C262.847 248.158 263.442 248.812 264.195 249.288C264.968 249.744 265.84 249.972 266.811 249.972ZM284.244 252.142C282.5 252.142 281.113 251.617 280.082 250.566C279.051 249.496 278.536 247.861 278.536 245.66V237.038H281.033V245.393C281.033 248.465 282.292 250.001 284.809 250.001C286.098 250.001 287.158 249.545 287.991 248.634C288.843 247.702 289.269 246.384 289.269 244.679V237.038H291.767V251.785H289.507L289.329 249.139C288.873 250.071 288.189 250.804 287.277 251.339C286.385 251.874 285.374 252.142 284.244 252.142ZM302.996 252.142C301.589 252.142 300.32 251.825 299.19 251.191C298.08 250.536 297.198 249.635 296.544 248.485C295.91 247.316 295.593 245.958 295.593 244.412C295.593 242.866 295.91 241.518 296.544 240.368C297.198 239.199 298.08 238.297 299.19 237.663C300.32 237.009 301.589 236.682 302.996 236.682C304.74 236.682 306.207 237.137 307.396 238.049C308.605 238.961 309.368 240.18 309.686 241.706H307.129C306.93 240.794 306.445 240.091 305.672 239.595C304.899 239.08 303.997 238.822 302.966 238.822C302.134 238.822 301.351 239.03 300.617 239.447C299.884 239.863 299.289 240.487 298.834 241.32C298.378 242.152 298.15 243.183 298.15 244.412C298.15 245.641 298.378 246.671 298.834 247.504C299.289 248.336 299.884 248.971 300.617 249.407C301.351 249.823 302.134 250.031 302.966 250.031C303.997 250.031 304.899 249.783 305.672 249.288C306.445 248.772 306.93 248.049 307.129 247.117H309.686C309.388 248.604 308.635 249.813 307.426 250.745C306.217 251.676 304.74 252.142 302.996 252.142ZM318.934 251.785C317.586 251.785 316.526 251.458 315.753 250.804C314.98 250.15 314.593 248.971 314.593 247.266V239.149H312.036V237.038H314.593L314.92 233.5H317.091V237.038H321.432V239.149H317.091V247.266C317.091 248.198 317.279 248.832 317.656 249.169C318.032 249.486 318.696 249.644 319.648 249.644H321.194V251.785H318.934ZM323.725 254.61L331.188 229.07H333.656L326.193 254.61H323.725ZM336.898 258.326V237.038H339.157L339.395 239.476C339.871 238.763 340.545 238.119 341.417 237.544C342.309 236.969 343.439 236.682 344.806 236.682C346.273 236.682 347.552 237.019 348.642 237.692C349.732 238.366 350.574 239.288 351.169 240.457C351.783 241.627 352.091 242.955 352.091 244.441C352.091 245.928 351.783 247.256 351.169 248.425C350.574 249.575 349.722 250.487 348.612 251.161C347.522 251.815 346.243 252.142 344.777 252.142C343.568 252.142 342.487 251.894 341.536 251.399C340.604 250.903 339.891 250.209 339.395 249.317V258.326H336.898ZM344.509 249.972C345.5 249.972 346.372 249.744 347.125 249.288C347.879 248.812 348.473 248.158 348.909 247.325C349.345 246.493 349.563 245.522 349.563 244.412C349.563 243.302 349.345 242.331 348.909 241.498C348.473 240.666 347.879 240.021 347.125 239.566C346.372 239.09 345.5 238.852 344.509 238.852C343.518 238.852 342.646 239.09 341.893 239.566C341.14 240.021 340.545 240.666 340.109 241.498C339.673 242.331 339.455 243.302 339.455 244.412C339.455 245.522 339.673 246.493 340.109 247.325C340.545 248.158 341.14 248.812 341.893 249.288C342.646 249.744 343.518 249.972 344.509 249.972ZM362.626 252.142C361.239 252.142 359.99 251.825 358.88 251.191C357.77 250.556 356.888 249.664 356.234 248.515C355.6 247.345 355.283 245.978 355.283 244.412C355.283 242.846 355.61 241.488 356.264 240.339C356.918 239.169 357.8 238.267 358.91 237.633C360.04 236.999 361.298 236.682 362.686 236.682C364.073 236.682 365.322 236.999 366.432 237.633C367.542 238.267 368.414 239.169 369.048 240.339C369.702 241.488 370.029 242.846 370.029 244.412C370.029 245.978 369.702 247.345 369.048 248.515C368.394 249.664 367.502 250.556 366.372 251.191C365.262 251.825 364.014 252.142 362.626 252.142ZM362.626 250.001C363.479 250.001 364.271 249.793 365.005 249.377C365.738 248.961 366.333 248.336 366.789 247.504C367.245 246.671 367.472 245.641 367.472 244.412C367.472 243.183 367.245 242.152 366.789 241.32C366.353 240.487 365.768 239.863 365.034 239.447C364.301 239.03 363.518 238.822 362.686 238.822C361.833 238.822 361.041 239.03 360.307 239.447C359.574 239.863 358.979 240.487 358.523 241.32C358.067 242.152 357.839 243.183 357.839 244.412C357.839 245.641 358.067 246.671 358.523 247.504C358.979 248.336 359.564 248.961 360.277 249.377C361.011 249.793 361.794 250.001 362.626 250.001ZM379.491 252.142C377.727 252.142 376.26 251.696 375.09 250.804C373.921 249.912 373.237 248.703 373.039 247.177H375.596C375.754 247.95 376.161 248.624 376.815 249.199C377.489 249.754 378.391 250.031 379.52 250.031C380.571 250.031 381.344 249.813 381.839 249.377C382.335 248.921 382.583 248.386 382.583 247.771C382.583 246.879 382.256 246.285 381.602 245.988C380.967 245.69 380.065 245.423 378.896 245.185C378.103 245.026 377.31 244.798 376.518 244.501C375.725 244.204 375.061 243.787 374.526 243.252C373.99 242.697 373.723 241.974 373.723 241.082C373.723 239.793 374.198 238.743 375.15 237.93C376.121 237.098 377.429 236.682 379.074 236.682C380.64 236.682 381.919 237.078 382.91 237.871C383.921 238.644 384.505 239.754 384.664 241.201H382.196C382.097 240.448 381.77 239.863 381.215 239.447C380.68 239.011 379.956 238.793 379.045 238.793C378.153 238.793 377.459 238.981 376.963 239.357C376.488 239.734 376.25 240.23 376.25 240.844C376.25 241.439 376.557 241.904 377.172 242.241C377.806 242.578 378.658 242.866 379.729 243.104C380.64 243.302 381.503 243.55 382.315 243.847C383.148 244.124 383.822 244.55 384.337 245.125C384.872 245.68 385.14 246.493 385.14 247.563C385.159 248.891 384.654 249.991 383.623 250.863C382.612 251.716 381.235 252.142 379.491 252.142ZM394.207 251.785C392.859 251.785 391.799 251.458 391.026 250.804C390.253 250.15 389.866 248.971 389.866 247.266V239.149H387.309V237.038H389.866L390.193 233.5H392.363V237.038H396.704V239.149H392.363V247.266C392.363 248.198 392.552 248.832 392.928 249.169C393.305 249.486 393.969 249.644 394.92 249.644H396.466V251.785H394.207ZM408.425 251.785V230.378H410.923V251.785H408.425ZM416.872 233.768C416.377 233.768 415.96 233.609 415.623 233.292C415.306 232.955 415.148 232.539 415.148 232.043C415.148 231.568 415.306 231.171 415.623 230.854C415.96 230.537 416.377 230.378 416.872 230.378C417.348 230.378 417.754 230.537 418.091 230.854C418.428 231.171 418.596 231.568 418.596 232.043C418.596 232.539 418.428 232.955 418.091 233.292C417.754 233.609 417.348 233.768 416.872 233.768ZM415.623 251.785V237.038H418.121V251.785H415.623ZM422.809 251.785V237.038H425.069L425.217 239.684C425.693 238.753 426.377 238.019 427.269 237.484C428.161 236.949 429.172 236.682 430.301 236.682C432.046 236.682 433.433 237.217 434.464 238.287C435.514 239.338 436.04 240.963 436.04 243.163V251.785H433.542V243.431C433.542 240.358 432.274 238.822 429.736 238.822C428.468 238.822 427.408 239.288 426.555 240.22C425.723 241.131 425.306 242.44 425.306 244.144V251.785H422.809ZM440.163 251.785V230.378H442.661V243.252L448.696 237.038H451.758L445.217 243.698L452.591 251.785H449.41L442.661 244.144V251.785H440.163Z" fill="#0A0A0A" fill-opacity="0.6"/>
<rect x="181.989" y="335.345" width="293.067" height="101.936" rx="50.9682" fill="#6A5B40"/>
<path d="M240.862 396.432C239.375 396.432 238.027 396.145 236.818 395.57C235.629 394.975 234.678 394.073 233.964 392.864C233.27 391.655 232.923 390.119 232.923 388.256V375.263H236.075V388.286C236.075 390.109 236.511 391.447 237.383 392.299C238.255 393.152 239.435 393.578 240.921 393.578C242.388 393.578 243.557 393.152 244.43 392.299C245.302 391.447 245.738 390.109 245.738 388.286V375.263H248.889V388.256C248.889 390.119 248.523 391.655 247.789 392.864C247.076 394.073 246.104 394.975 244.876 395.57C243.666 396.145 242.329 396.432 240.862 396.432ZM252.813 402.616V381.328H255.637L255.964 383.618C256.44 382.924 257.094 382.31 257.927 381.774C258.759 381.239 259.83 380.972 261.138 380.972C262.565 380.972 263.823 381.309 264.914 381.982C266.004 382.656 266.856 383.578 267.47 384.748C268.105 385.917 268.422 387.245 268.422 388.732C268.422 390.218 268.105 391.546 267.47 392.716C266.856 393.865 266.004 394.777 264.914 395.451C263.823 396.105 262.555 396.432 261.108 396.432C259.958 396.432 258.938 396.204 258.046 395.748C257.173 395.292 256.48 394.648 255.964 393.816V402.616H252.813ZM260.573 393.697C261.921 393.697 263.031 393.241 263.903 392.329C264.775 391.397 265.211 390.188 265.211 388.702C265.211 387.731 265.013 386.868 264.616 386.115C264.22 385.362 263.675 384.777 262.981 384.361C262.287 383.925 261.485 383.707 260.573 383.707C259.225 383.707 258.115 384.173 257.243 385.104C256.391 386.036 255.964 387.235 255.964 388.702C255.964 390.188 256.391 391.397 257.243 392.329C258.115 393.241 259.225 393.697 260.573 393.697ZM271.831 396.075V374.669H274.982V396.075H271.831ZM285.871 396.432C284.464 396.432 283.195 396.115 282.065 395.481C280.955 394.826 280.073 393.925 279.419 392.775C278.765 391.606 278.438 390.248 278.438 388.702C278.438 387.156 278.765 385.808 279.419 384.658C280.093 383.489 280.995 382.587 282.125 381.953C283.254 381.299 284.513 380.972 285.901 380.972C287.308 380.972 288.566 381.299 289.676 381.953C290.806 382.587 291.698 383.489 292.352 384.658C293.026 385.808 293.363 387.156 293.363 388.702C293.363 390.248 293.026 391.606 292.352 392.775C291.698 393.925 290.806 394.826 289.676 395.481C288.547 396.115 287.278 396.432 285.871 396.432ZM285.871 393.726C286.624 393.726 287.318 393.538 287.952 393.162C288.606 392.785 289.131 392.23 289.528 391.497C289.924 390.743 290.122 389.812 290.122 388.702C290.122 387.592 289.924 386.67 289.528 385.937C289.151 385.184 288.636 384.619 287.982 384.242C287.347 383.865 286.654 383.677 285.901 383.677C285.147 383.677 284.444 383.865 283.79 384.242C283.155 384.619 282.64 385.184 282.244 385.937C281.847 386.67 281.649 387.592 281.649 388.702C281.649 389.812 281.847 390.743 282.244 391.497C282.64 392.23 283.155 392.785 283.79 393.162C284.424 393.538 285.118 393.726 285.871 393.726ZM301.766 396.432C300.517 396.432 299.487 396.224 298.674 395.808C297.861 395.391 297.257 394.846 296.861 394.172C296.464 393.479 296.266 392.725 296.266 391.913C296.266 390.486 296.821 389.356 297.931 388.523C299.041 387.691 300.627 387.275 302.688 387.275H306.553V387.007C306.553 385.857 306.236 384.995 305.602 384.42C304.987 383.846 304.184 383.558 303.193 383.558C302.321 383.558 301.558 383.776 300.904 384.212C300.27 384.629 299.883 385.253 299.744 386.085H296.593C296.692 385.015 297.049 384.103 297.663 383.35C298.298 382.577 299.09 381.992 300.042 381.596C301.013 381.18 302.073 380.972 303.223 380.972C305.284 380.972 306.88 381.517 308.01 382.607C309.14 383.677 309.705 385.144 309.705 387.007V396.075H306.969L306.702 393.548C306.285 394.361 305.681 395.045 304.888 395.599C304.095 396.154 303.055 396.432 301.766 396.432ZM302.391 393.875C303.243 393.875 303.956 393.677 304.531 393.28C305.126 392.864 305.582 392.319 305.899 391.645C306.236 390.971 306.444 390.228 306.523 389.415H303.015C301.766 389.415 300.874 389.633 300.339 390.069C299.824 390.505 299.566 391.051 299.566 391.705C299.566 392.379 299.814 392.914 300.309 393.31C300.825 393.687 301.518 393.875 302.391 393.875ZM320.098 396.432C318.671 396.432 317.413 396.095 316.323 395.421C315.232 394.747 314.38 393.826 313.766 392.656C313.151 391.487 312.844 390.159 312.844 388.672C312.844 387.185 313.151 385.867 313.766 384.718C314.38 383.548 315.232 382.637 316.323 381.982C317.433 381.309 318.701 380.972 320.128 380.972C321.298 380.972 322.318 381.2 323.191 381.655C324.082 382.111 324.776 382.755 325.272 383.588V374.669H328.423V396.075H325.599L325.272 393.786C324.796 394.48 324.142 395.094 323.309 395.629C322.477 396.164 321.407 396.432 320.098 396.432ZM320.663 393.697C322.011 393.697 323.111 393.231 323.964 392.299C324.836 391.368 325.272 390.169 325.272 388.702C325.272 387.215 324.836 386.016 323.964 385.104C323.111 384.173 322.011 383.707 320.663 383.707C319.316 383.707 318.206 384.173 317.333 385.104C316.461 386.016 316.025 387.215 316.025 388.702C316.025 389.673 316.223 390.535 316.62 391.288C317.016 392.042 317.561 392.636 318.255 393.072C318.969 393.489 319.771 393.697 320.663 393.697ZM341.672 378.534C341.077 378.534 340.582 378.355 340.185 377.998C339.808 377.622 339.62 377.156 339.62 376.601C339.62 376.046 339.808 375.59 340.185 375.233C340.582 374.857 341.077 374.669 341.672 374.669C342.266 374.669 342.752 374.857 343.128 375.233C343.525 375.59 343.723 376.046 343.723 376.601C343.723 377.156 343.525 377.622 343.128 377.998C342.752 378.355 342.266 378.534 341.672 378.534ZM340.096 396.075V381.328H343.247V396.075H340.096ZM347.408 396.075V381.328H350.202L350.47 383.41C350.946 382.656 351.57 382.062 352.343 381.626C353.136 381.19 354.048 380.972 355.078 380.972C357.417 380.972 359.043 381.893 359.954 383.737C360.49 382.884 361.203 382.21 362.095 381.715C363.007 381.219 363.988 380.972 365.038 380.972C366.882 380.972 368.329 381.527 369.379 382.637C370.43 383.747 370.955 385.402 370.955 387.602V396.075H367.804V387.929C367.804 385.075 366.713 383.647 364.533 383.647C363.423 383.647 362.511 384.064 361.798 384.896C361.104 385.729 360.757 386.918 360.757 388.464V396.075H357.606V387.929C357.606 385.075 356.506 383.647 354.305 383.647C353.215 383.647 352.313 384.064 351.6 384.896C350.906 385.729 350.559 386.918 350.559 388.464V396.075H347.408ZM379.637 396.432C378.388 396.432 377.358 396.224 376.545 395.808C375.732 395.391 375.128 394.846 374.731 394.172C374.335 393.479 374.137 392.725 374.137 391.913C374.137 390.486 374.692 389.356 375.802 388.523C376.912 387.691 378.497 387.275 380.559 387.275H384.424V387.007C384.424 385.857 384.107 384.995 383.472 384.42C382.858 383.846 382.055 383.558 381.064 383.558C380.192 383.558 379.429 383.776 378.775 384.212C378.141 384.629 377.754 385.253 377.615 386.085H374.464C374.563 385.015 374.92 384.103 375.534 383.35C376.168 382.577 376.961 381.992 377.913 381.596C378.884 381.18 379.944 380.972 381.094 380.972C383.155 380.972 384.751 381.517 385.881 382.607C387.011 383.677 387.575 385.144 387.575 387.007V396.075H384.84L384.573 393.548C384.156 394.361 383.552 395.045 382.759 395.599C381.966 396.154 380.925 396.432 379.637 396.432ZM380.261 393.875C381.114 393.875 381.827 393.677 382.402 393.28C382.997 392.864 383.453 392.319 383.77 391.645C384.107 390.971 384.315 390.228 384.394 389.415H380.886C379.637 389.415 378.745 389.633 378.21 390.069C377.695 390.505 377.437 391.051 377.437 391.705C377.437 392.379 377.685 392.914 378.18 393.31C378.696 393.687 379.389 393.875 380.261 393.875ZM397.286 391.556C396.513 391.556 395.799 391.467 395.145 391.288L393.866 392.537C394.084 392.676 394.352 392.795 394.669 392.894C394.986 392.993 395.432 393.082 396.007 393.162C396.582 393.241 397.365 393.32 398.356 393.399C400.318 393.578 401.735 394.053 402.607 394.826C403.48 395.58 403.916 396.591 403.916 397.859C403.916 398.731 403.678 399.554 403.202 400.327C402.746 401.12 402.023 401.754 401.032 402.23C400.06 402.725 398.812 402.973 397.286 402.973C395.224 402.973 393.549 402.576 392.261 401.784C390.992 401.011 390.358 399.831 390.358 398.246C390.358 397.631 390.517 397.017 390.834 396.402C391.171 395.808 391.696 395.243 392.41 394.708C391.993 394.529 391.627 394.341 391.309 394.143C391.012 393.925 390.745 393.707 390.507 393.489V392.775L393.064 390.159C391.914 389.168 391.339 387.869 391.339 386.264C391.339 385.293 391.567 384.411 392.023 383.618C392.499 382.805 393.183 382.161 394.075 381.685C394.966 381.209 396.037 380.972 397.286 380.972C398.118 380.972 398.891 381.091 399.605 381.328H405.105V383.41L402.489 383.558C402.964 384.371 403.202 385.273 403.202 386.264C403.202 387.255 402.964 388.147 402.489 388.94C402.033 389.732 401.359 390.367 400.467 390.842C399.595 391.318 398.534 391.556 397.286 391.556ZM397.286 389.088C398.197 389.088 398.931 388.85 399.486 388.375C400.06 387.879 400.348 387.185 400.348 386.294C400.348 385.382 400.06 384.688 399.486 384.212C398.931 383.737 398.197 383.499 397.286 383.499C396.354 383.499 395.601 383.737 395.026 384.212C394.471 384.688 394.193 385.382 394.193 386.294C394.193 387.185 394.471 387.879 395.026 388.375C395.601 388.85 396.354 389.088 397.286 389.088ZM393.331 397.948C393.331 398.801 393.708 399.435 394.461 399.851C395.214 400.287 396.156 400.505 397.286 400.505C398.376 400.505 399.258 400.267 399.932 399.792C400.606 399.336 400.942 398.721 400.942 397.948C400.942 397.373 400.715 396.878 400.259 396.462C399.803 396.065 398.941 395.818 397.672 395.718C396.721 395.659 395.878 395.57 395.145 395.451C394.451 395.827 393.975 396.234 393.718 396.67C393.46 397.106 393.331 397.532 393.331 397.948ZM414.233 396.432C412.786 396.432 411.498 396.115 410.368 395.481C409.258 394.826 408.386 393.925 407.751 392.775C407.117 391.625 406.8 390.287 406.8 388.761C406.8 387.215 407.107 385.857 407.722 384.688C408.356 383.519 409.228 382.607 410.338 381.953C411.468 381.299 412.776 380.972 414.263 380.972C415.71 380.972 416.968 381.299 418.039 381.953C419.109 382.587 419.941 383.439 420.536 384.51C421.131 385.58 421.428 386.759 421.428 388.048C421.428 388.246 421.418 388.464 421.398 388.702C421.398 388.92 421.388 389.168 421.368 389.445H409.892C409.991 390.872 410.457 391.962 411.29 392.716C412.142 393.449 413.123 393.816 414.233 393.816C415.125 393.816 415.868 393.617 416.463 393.221C417.077 392.805 417.533 392.25 417.83 391.556H420.982C420.586 392.943 419.793 394.103 418.603 395.035C417.434 395.966 415.977 396.432 414.233 396.432ZM414.233 383.558C413.182 383.558 412.251 383.875 411.438 384.51C410.626 385.124 410.13 386.056 409.952 387.304H418.276C418.217 386.155 417.811 385.243 417.057 384.569C416.304 383.895 415.363 383.558 414.233 383.558Z" fill="white"/>
<rect x="-28" y="91" width="1105" height="479" fill="url(#paint0_linear_433_1604)"/>
</g>
<defs>
<filter id="filter0_d_433_1604" x="157.833" y="49.844" width="770.895" height="454.467" filterUnits="userSpaceOnUse" color-interpolation-filters="sRGB">
<feFlood flood-opacity="0" result="BackgroundImageFix"/>
<feColorMatrix in="SourceAlpha" type="matrix" values="0 0 0 0 0 0 0 0 0 0 0 0 0 0 0 0 0 0 127 0" result="hardAlpha"/>
<feOffset dx="15.1312" dy="-4.11064"/>
<feGaussianBlur stdDeviation="10.6184"/>
<feComposite in2="hardAlpha" operator="out"/>
<feColorMatrix type="matrix" values="0 0 0 0 0 0 0 0 0 0 0 0 0 0 0 0 0 0 0.15 0"/>
<feBlend mode="normal" in2="BackgroundImageFix" result="effect1_dropShadow_433_1604"/>
<feBlend mode="normal" in="SourceGraphic" in2="effect1_dropShadow_433_1604" result="shape"/>
</filter>
<linearGradient id="paint0_linear_433_1604" x1="524.5" y1="-64.675" x2="524.5" y2="460.514" gradientUnits="userSpaceOnUse">
<stop offset="0.4375" stop-color="#6A5B40" stop-opacity="0"/>
<stop offset="0.95104" stop-color="#6A5B40"/>
</linearGradient>
<clipPath id="clip0_433_1604">
<rect width="1057" height="570" rx="50.4373" fill="white"/>
</clipPath>
</defs>
</svg>
