<svg width="122" height="22" viewBox="0 0 122 22" fill="none" xmlns="http://www.w3.org/2000/svg">
<path opacity="0.3" d="M9.11 13.53C8.53 13.53 8.02 13.43 7.58 13.23C7.14 13.01 6.73 12.77 6.35 12.51C5.97 12.25 5.59 12.02 5.21 11.82C4.83 11.62 4.42 11.52 3.98 11.52C3.44 11.52 2.99 11.71 2.63 12.09C2.29 12.45 2.08 12.92 2 13.5H0.11C0.35 12.06 0.81 11 1.49 10.32C2.19 9.62 3.07 9.27 4.13 9.27C4.69 9.27 5.2 9.37 5.66 9.57C6.12 9.77 6.54 10 6.92 10.26C7.3 10.52 7.68 10.75 8.06 10.95C8.44 11.15 8.84 11.25 9.26 11.25C9.8 11.25 10.24 11.07 10.58 10.71C10.94 10.35 11.16 9.87 11.24 9.27H13.13C12.91 10.71 12.45 11.78 11.75 12.48C11.07 13.18 10.19 13.53 9.11 13.53ZM24.3938 21V-1.43051e-06H27.3338L34.8938 14.64L42.3938 -1.43051e-06H45.3638V21H42.8438V4.5L35.8238 18H33.9338L26.9138 4.53V21H24.3938ZM56.3342 21.36C54.9142 21.36 53.6542 21.04 52.5542 20.4C51.4542 19.74 50.5842 18.83 49.9442 17.67C49.3242 16.51 49.0142 15.14 49.0142 13.56C49.0142 12 49.3242 10.64 49.9442 9.48C50.5642 8.3 51.4242 7.39 52.5242 6.75C53.6442 6.09 54.9342 5.76 56.3942 5.76C57.8342 5.76 59.0742 6.09 60.1142 6.75C61.1742 7.39 61.9842 8.24 62.5442 9.3C63.1042 10.36 63.3842 11.5 63.3842 12.72C63.3842 12.94 63.3742 13.16 63.3542 13.38C63.3542 13.6 63.3542 13.85 63.3542 14.13H51.5042C51.5642 15.27 51.8242 16.22 52.2842 16.98C52.7642 17.72 53.3542 18.28 54.0542 18.66C54.7742 19.04 55.5342 19.23 56.3342 19.23C57.3742 19.23 58.2442 18.99 58.9442 18.51C59.6442 18.03 60.1542 17.38 60.4742 16.56H62.9642C62.5642 17.94 61.7942 19.09 60.6542 20.01C59.5342 20.91 58.0942 21.36 56.3342 21.36ZM56.3342 7.89C55.1342 7.89 54.0642 8.26 53.1242 9C52.2042 9.72 51.6742 10.78 51.5342 12.18H60.8942C60.8342 10.84 60.3742 9.79 59.5142 9.03C58.6542 8.27 57.5942 7.89 56.3342 7.89ZM66.7243 21V6.12H69.0043L69.1543 8.79C69.6343 7.85 70.3243 7.11 71.2243 6.57C72.1243 6.03 73.1443 5.76 74.2843 5.76C76.0443 5.76 77.4443 6.3 78.4843 7.38C79.5443 8.44 80.0743 10.08 80.0743 12.3V21H77.5543V12.57C77.5543 9.47 76.2743 7.92 73.7143 7.92C72.4343 7.92 71.3643 8.39 70.5043 9.33C69.6643 10.25 69.2443 11.57 69.2443 13.29V21H66.7243ZM89.3223 21.36C87.5623 21.36 86.1623 20.83 85.1223 19.77C84.0823 18.69 83.5623 17.04 83.5623 14.82V6.12H86.0823V14.55C86.0823 17.65 87.3523 19.2 89.8923 19.2C91.1923 19.2 92.2623 18.74 93.1023 17.82C93.9623 16.88 94.3923 15.55 94.3923 13.83V6.12H96.9123V21H94.6323L94.4523 18.33C93.9923 19.27 93.3023 20.01 92.3823 20.55C91.4823 21.09 90.4623 21.36 89.3223 21.36ZM117.04 13.53C116.46 13.53 115.95 13.43 115.51 13.23C115.07 13.01 114.66 12.77 114.28 12.51C113.9 12.25 113.52 12.02 113.14 11.82C112.76 11.62 112.35 11.52 111.91 11.52C111.37 11.52 110.92 11.71 110.56 12.09C110.22 12.45 110.01 12.92 109.93 13.5H108.04C108.28 12.06 108.74 11 109.42 10.32C110.12 9.62 111 9.27 112.06 9.27C112.62 9.27 113.13 9.37 113.59 9.57C114.05 9.77 114.47 10 114.85 10.26C115.23 10.52 115.61 10.75 115.99 10.95C116.37 11.15 116.77 11.25 117.19 11.25C117.73 11.25 118.17 11.07 118.51 10.71C118.87 10.35 119.09 9.87 119.17 9.27H121.06C120.84 10.71 120.38 11.78 119.68 12.48C119 13.18 118.12 13.53 117.04 13.53Z" fill="#161616"/>
</svg>
