<svg width="76" height="76" viewBox="0 0 76 76" fill="none" xmlns="http://www.w3.org/2000/svg">
<circle cx="37.828" cy="37.828" r="37.828" fill="white"/>
<path fill-rule="evenodd" clip-rule="evenodd" d="M25.2191 40.3667L44.36 40.3667L36.0379 48.6636C35.049 49.6525 35.049 51.2558 36.0379 52.2447C37.0268 53.2335 38.6301 53.2335 39.6189 52.2447L52.2283 39.6353C52.4578 39.3955 52.6378 39.1127 52.7578 38.8031C53.0101 38.1891 53.0101 37.5005 52.7578 36.8865C52.6378 36.5769 52.4578 36.2941 52.2283 36.0543L39.6189 23.445C39.1454 22.9675 38.5008 22.699 37.8284 22.699C37.156 22.699 36.5114 22.9675 36.0379 23.445C35.5605 23.9185 35.2919 24.5631 35.2919 25.2355C35.2919 25.9079 35.5605 26.5525 36.0379 27.026L44.36 35.3229L25.2191 35.323C23.8263 35.323 22.6972 36.452 22.6972 37.8448C22.6972 39.2376 23.8263 40.3667 25.2191 40.3667Z" fill="#897552"/>
</svg>
