<svg width="13" height="14" viewBox="0 0 13 14" fill="none" xmlns="http://www.w3.org/2000/svg">
<path fill-rule="evenodd" clip-rule="evenodd" d="M11.4999 6.00019H3.9099L7.2099 2.71019C7.60202 2.31806 7.60202 1.68231 7.2099 1.29019C6.81777 0.898063 6.18202 0.898063 5.7899 1.29019L0.789896 6.29019C0.698856 6.38529 0.627491 6.49743 0.579896 6.62019C0.479878 6.86365 0.479878 7.13672 0.579896 7.38019C0.627491 7.50294 0.698856 7.61508 0.789896 7.71019L5.7899 12.7102C5.97766 12.8995 6.23326 13.006 6.4999 13.006C6.76653 13.006 7.02213 12.8995 7.2099 12.7102C7.39921 12.5224 7.50569 12.2668 7.50569 12.0002C7.50569 11.7335 7.39921 11.478 7.2099 11.2902L3.9099 8.00019H11.4999C12.0522 8.00019 12.4999 7.55247 12.4999 7.00019C12.4999 6.4479 12.0522 6.00019 11.4999 6.00019Z" fill="#0A0A0A"/>
</svg>
