<svg width="24" height="29" viewBox="0 0 24 29" fill="none" xmlns="http://www.w3.org/2000/svg">
<path fill-rule="evenodd" clip-rule="evenodd" d="M22.4395 7.80887H18.104V6.40041C18.104 3.28894 15.5158 0.766602 12.3232 0.766602C9.1306 0.766602 6.54247 3.28894 6.54247 6.40041V7.80887H2.20691C1.40875 7.80887 0.761719 8.43945 0.761719 9.21732V24.7103C0.761719 27.0439 2.70282 28.9357 5.09728 28.9357H19.5492C21.9436 28.9357 23.8847 27.0439 23.8847 24.7103V9.21732C23.8847 8.43945 23.2377 7.80887 22.4395 7.80887ZM9.43262 6.40089C9.43262 4.84516 10.7267 3.58398 12.323 3.58398C13.9193 3.58398 15.2134 4.84516 15.2134 6.40089V7.80934H9.43262V6.40089ZM20.9946 24.7115C20.9946 25.4894 20.3476 26.1199 19.5494 26.1199H5.09753C4.29938 26.1199 3.65234 25.4894 3.65234 24.7115V10.627H6.54272V12.0354C6.54272 12.8133 7.18975 13.4439 7.98791 13.4439C8.78607 13.4439 9.4331 12.8133 9.4331 12.0354V10.627H15.2139V12.0354C15.2139 12.8133 15.8609 13.4439 16.659 13.4439C17.4572 13.4439 18.1042 12.8133 18.1042 12.0354V10.627H20.9946V24.7115Z" fill="black" fill-opacity="0.7"/>
</svg>
