<svg width="27" height="27" viewBox="0 0 27 27" fill="none" xmlns="http://www.w3.org/2000/svg">
<path d="M8.07915 0.355594C6.72776 0.355594 5.61419 1.16546 5.61419 2.14808V5.13573H3.14924C1.79814 5.13573 0.68457 5.9456 0.68457 6.92843V24.8543C0.68457 25.8369 1.79814 26.6468 3.14924 26.6468H19.5813C20.9327 26.6468 22.0463 25.8369 22.0463 24.8543V21.8667H24.5112C25.8623 21.8667 26.9759 21.0568 26.9759 20.074V6.33079C26.9742 6.17261 26.8865 6.02173 26.732 5.91065L19.3376 0.532879C19.1849 0.420549 18.9771 0.356779 18.7599 0.35553H11.3655C11.1457 0.353238 10.9336 0.415134 10.7772 0.527464C10.6204 0.639795 10.5322 0.79297 10.5322 0.953023C10.5322 1.11287 10.6204 1.26625 10.7772 1.37858C10.9336 1.49091 11.1457 1.5528 11.3655 1.55052H17.9385V6.33086C17.9385 6.66076 18.3064 6.92834 18.76 6.92834H25.333V20.074C25.333 20.4154 24.9808 20.6715 24.5114 20.6715H8.07936C7.60999 20.6715 7.25753 20.4154 7.25753 20.074V2.1481C7.25753 1.80674 7.61 1.55062 8.07936 1.55062C8.29915 1.55291 8.51119 1.49102 8.66765 1.37869C8.82439 1.26636 8.91265 1.11297 8.91265 0.95313C8.91265 0.793077 8.82439 0.639901 8.66765 0.527571C8.51119 0.415241 8.29915 0.353348 8.07936 0.355637L8.07915 0.355594ZM19.5816 2.39082L24.1776 5.73315H19.5816V2.39082ZM3.14953 6.3309H5.61449V20.0741C5.61449 21.0569 6.72805 21.8668 8.07945 21.8668H20.4035V24.8544C20.4035 25.1958 20.051 25.4519 19.5817 25.4519H3.1496C2.68023 25.4519 2.32807 25.1958 2.32807 24.8544V6.92853C2.32807 6.58717 2.68025 6.33106 3.1496 6.33106L3.14953 6.3309Z" fill="white"/>
</svg>
