<svg width="60" height="60" viewBox="0 0 60 60" fill="none" xmlns="http://www.w3.org/2000/svg">
<circle cx="30" cy="30" r="30" fill="black" fill-opacity="0.4"/>
<path d="M23.0002 14.0002C21.3554 14.0002 20 14.9859 20 16.1818V19.8182H16.9998C15.3554 19.8182 14 20.8039 14 22.0002V43.8183C14 45.0143 15.3554 46 16.9998 46H36.9998C38.6446 46 40 45.0143 40 43.8183V40.182H43.0002C44.6446 40.182 46 39.1963 46 38V21.2728C45.9979 21.0802 45.8912 20.8966 45.7032 20.7614L36.7032 14.2159C36.5173 14.0792 36.2644 14.0016 36.0001 14.0001H27.0001C26.7326 13.9973 26.4745 14.0726 26.284 14.2093C26.0933 14.3461 25.9858 14.5325 25.9858 14.7273C25.9858 14.9219 26.0933 15.1085 26.284 15.2453C26.4745 15.382 26.7326 15.4573 27.0001 15.4545H35.0002V21.2728C35.0002 21.6744 35.4481 22 36.0002 22H44.0003V38.0001C44.0003 38.4155 43.5717 38.7273 43.0004 38.7273H23.0004C22.4291 38.7273 22.0002 38.4155 22.0002 38.0001V16.1819C22.0002 15.7664 22.4292 15.4547 23.0004 15.4547C23.2679 15.4574 23.526 15.3821 23.7165 15.2454C23.9072 15.1087 24.0147 14.922 24.0147 14.7274C24.0147 14.5326 23.9072 14.3462 23.7165 14.2095C23.526 14.0728 23.2679 13.9974 23.0004 14.0002L23.0002 14.0002ZM37.0002 16.4773L42.5941 20.5453H37.0002V16.4773ZM17.0002 21.2729H20.0004V38.0002C20.0004 39.1964 21.3557 40.1821 23.0005 40.1821H38.0005V43.8185C38.0005 44.2339 37.5715 44.5457 37.0003 44.5457H17.0003C16.429 44.5457 16.0004 44.2339 16.0004 43.8185V22.0003C16.0004 21.5848 16.429 21.2731 17.0003 21.2731L17.0002 21.2729Z" fill="white"/>
</svg>
