<svg width="24" height="25" viewBox="0 0 24 25" fill="none" xmlns="http://www.w3.org/2000/svg">
<path d="M17.8839 0.295694C16.1427 0.182447 14.4395 0.924368 13.1809 2.34484C12.8617 2.69988 12.5745 3.09227 12.3232 3.51617C12.0722 3.09072 11.7847 2.69681 11.4655 2.34021C10.2059 0.922457 8.50323 0.182078 6.76255 0.295615C3.39855 0.515072 0.761734 3.93756 0.761734 8.10174C0.757051 11.0481 1.84682 13.8501 3.74539 15.7717L12.3232 24.4291L20.9011 15.7717C22.7996 13.8502 23.8894 11.0481 23.8847 8.10174C23.8847 3.93756 21.2478 0.515088 17.8839 0.295615V0.295694ZM19.4315 13.7618L12.3235 20.9184L5.21548 13.7707C3.80833 12.3523 2.99903 10.2811 3.00003 8.10151C3.00003 5.38541 4.7417 3.06845 6.87857 2.92796H7.10256C8.1905 2.92796 9.23396 3.43665 10.0032 4.34172C10.7728 5.24711 11.2049 6.47478 11.2049 7.75479V8.63229H13.4427V7.75479C13.4409 6.42761 13.9037 5.15833 14.7221 4.24534C15.5408 3.33203 16.6425 2.85579 17.769 2.92803C19.9098 3.05965 21.6475 5.37632 21.6475 8.09704C21.6496 10.2784 20.8403 12.3515 19.4321 13.7707L19.4315 13.7618Z" fill="black" fill-opacity="0.7"/>
</svg>
