<svg width="28" height="28" viewBox="0 0 28 28" fill="none" xmlns="http://www.w3.org/2000/svg">
<path fill-rule="evenodd" clip-rule="evenodd" d="M8.05742 14.9637L16.7938 14.9637L12.9954 18.7506C12.544 19.202 12.544 19.9338 12.9954 20.3851C13.4467 20.8365 14.1785 20.8365 14.6299 20.3851L20.3851 14.6299C20.4899 14.5204 20.572 14.3914 20.6268 14.2501C20.7419 13.9698 20.7419 13.6555 20.6268 13.3753C20.572 13.234 20.4899 13.1049 20.3851 12.9954L14.6299 7.24023C14.4137 7.02232 14.1195 6.89975 13.8126 6.89975C13.5057 6.89975 13.2115 7.02232 12.9954 7.24023C12.7775 7.45635 12.6549 7.75055 12.6549 8.05747C12.6549 8.36438 12.7775 8.65858 12.9954 8.87471L16.7938 12.6616L8.05742 12.6616C7.42171 12.6616 6.90638 13.177 6.90638 13.8127C6.90638 14.4484 7.42172 14.9637 8.05742 14.9637Z" fill="#897552"/>
</svg>
