<svg width="24" height="29" viewBox="0 0 24 29" fill="none" xmlns="http://www.w3.org/2000/svg">
<path d="M12.1848 5.09874C13.8487 5.09874 15.3553 5.65789 16.4454 6.56151L16.4939 6.60519C17.5558 7.50611 18.2115 8.7366 18.2115 10.0908C18.2115 11.4691 17.5365 12.7172 16.4457 13.6202L16.3942 13.6604C15.3076 14.54 13.8222 15.0832 12.1853 15.0832C10.5214 15.0832 9.01475 14.524 7.92468 13.6204C6.83384 12.7168 6.15883 11.4685 6.15883 10.091C6.15883 8.71275 6.83384 7.46466 7.92468 6.56167C9.01552 5.65806 10.5224 5.0989 12.1853 5.0989L12.1848 5.09874ZM15.9176 21.2421C17.3601 21.4754 18.6218 21.8412 19.5902 22.2981C20.9929 22.9597 21.8291 23.8312 21.8291 24.8186C21.8291 25.9788 20.666 26.9857 18.7863 27.674C17.0849 28.2973 14.7503 28.6827 12.1859 28.6827C9.62143 28.6827 7.28582 28.2973 5.58433 27.674C3.70454 26.9857 2.54154 25.9779 2.54154 24.8186C2.54154 23.8312 3.37769 22.9588 4.78042 22.2981C5.74977 21.8414 7.01053 21.4754 8.45298 21.2421C7.62981 20.4257 6.79039 19.6993 5.9852 19.002C3.09409 16.4984 0.623047 14.3589 0.623047 10.0909C0.623047 7.44839 1.91707 5.05513 4.00977 3.32182L4.01302 3.31913C6.10571 1.58666 8.99458 0.513672 12.1846 0.513672C15.3768 0.513672 18.268 1.5856 20.3593 3.31913C22.452 5.05265 23.7461 7.44676 23.7461 10.0908C23.7461 14.3601 21.275 16.4995 18.3839 19.003C17.58 19.6992 16.7396 20.4266 15.9161 21.2431L15.9176 21.2421ZM9.45803 22.3008C7.85763 22.4966 6.47966 22.8581 5.48459 23.3274C4.53769 23.7735 3.97343 24.2943 3.97343 24.8187C3.97343 25.465 4.80959 26.0945 6.1596 26.5895C7.68899 27.1505 9.81917 27.4968 12.185 27.4968C14.5507 27.4968 16.6798 27.1496 18.2092 26.5895C19.5592 26.0945 20.3954 25.465 20.3954 24.8187C20.3954 24.2943 19.8311 23.7735 18.8842 23.3274C17.8888 22.8581 16.5111 22.4966 14.9108 22.3008C14.2293 23.0674 13.5748 23.9159 12.9815 24.8818C12.7579 25.2468 12.2183 25.3919 11.7778 25.2068C11.6026 25.1329 11.4694 25.0172 11.3854 24.8818C10.7922 23.9159 10.1377 23.0674 9.45619 22.3008H9.45803ZM19.0933 4.36672C17.3263 2.90294 14.8822 1.99662 12.1847 1.99662C9.48471 1.99662 7.04162 2.9021 5.27405 4.36487C3.50699 5.82949 2.41512 7.85322 2.41512 10.0894C2.41512 13.7753 4.654 15.7132 7.27328 17.9814C8.8994 19.3891 10.661 20.915 12.1851 23.0162C13.7103 20.915 15.4718 19.3889 17.098 17.9814C19.7172 15.7128 21.9561 13.7756 21.9561 10.0894C21.9561 7.85385 20.862 5.83013 19.0949 4.36646L19.0933 4.36672ZM15.1788 7.60939C14.4124 6.9745 13.3538 6.58197 12.1845 6.58197C11.0152 6.58197 9.95531 6.97467 9.1901 7.60939C8.42368 8.24427 7.94981 9.12118 7.94981 10.0898C7.94981 11.0584 8.42388 11.9364 9.1901 12.5703C9.95653 13.2051 11.0151 13.5977 12.1845 13.5977C13.3345 13.5977 14.3781 13.2193 15.1401 12.6059L15.1798 12.5711C15.9462 11.9362 16.4201 11.0593 16.4201 10.0907C16.4201 9.13611 15.9633 8.27351 15.2228 7.64313L15.1798 7.61022L15.1788 7.60939Z" fill="black" fill-opacity="0.7"/>
</svg>
