<svg width="42" height="39" viewBox="0 0 42 39" fill="none" xmlns="http://www.w3.org/2000/svg">
<path fill-rule="evenodd" clip-rule="evenodd" d="M27.4901 19.2424C31.007 16.4754 32.3838 11.7835 30.9197 7.55492C29.4556 3.32631 25.4725 0.490234 20.9976 0.490234C16.5227 0.490234 12.5395 3.32631 11.0755 7.55492C9.61139 11.7835 10.9882 16.4754 14.5051 19.2424C8.515 21.6422 4.33166 27.1438 3.62008 33.5574C3.51377 34.5238 4.21109 35.3935 5.17758 35.4999C6.14408 35.6062 7.01377 34.9088 7.12008 33.9423C7.91569 26.8596 13.9053 21.5052 21.0326 21.5052C28.1598 21.5052 34.1495 26.8596 34.9451 33.9423C35.0436 34.833 35.799 35.5053 36.6951 35.4999H36.8876C37.8425 35.39 38.53 34.5305 38.4276 33.5748C37.7126 27.1424 33.5057 21.6298 27.4901 19.2424V19.2424ZM21 18C17.134 18 14 14.866 14 11C14 7.13401 17.134 4 21 4C24.866 4 28 7.13401 28 11C28 12.8565 27.2625 14.637 25.9497 15.9498C24.637 17.2625 22.8565 18 21 18Z" fill="black"/>
</svg>
