<svg width="20" height="21" viewBox="0 0 20 21" fill="none" xmlns="http://www.w3.org/2000/svg">
<path fill-rule="evenodd" clip-rule="evenodd" d="M18.9747 18.5265L15.5328 14.998C18.3069 11.4232 17.8937 6.23074 14.5917 3.17243C11.2897 0.114126 6.25067 0.256635 3.11544 3.49699C-0.0197827 6.73735 -0.157668 11.9454 2.80141 15.3581C5.76049 18.7708 10.7844 19.1979 14.2433 16.3308L17.6573 19.8593C17.8315 20.0408 18.0686 20.1429 18.316 20.1429C18.5634 20.1429 18.8005 20.0408 18.9747 19.8593C19.3223 19.4876 19.3223 18.8981 18.9747 18.5265ZM9.03876 16.3315C5.4522 16.3315 2.54472 13.3265 2.54472 9.61966C2.54472 5.91284 5.4522 2.90786 9.03876 2.90786C12.6253 2.90786 15.5328 5.91284 15.5328 9.61966C15.5328 11.3997 14.8486 13.1069 13.6307 14.3656C12.4129 15.6243 10.7611 16.3315 9.03876 16.3315Z" fill="#9D9D9D"/>
</svg>
