<svg width="60" height="60" viewBox="0 0 60 60" fill="none" xmlns="http://www.w3.org/2000/svg">
<circle cx="30" cy="30" r="30" fill="black" fill-opacity="0.4"/>
<path d="M41.1608 19.3339V17.5218L16.8742 29.9771L41.1608 42.8905V40.989L20.457 29.9769L41.1608 19.3339ZM19.2538 35.0154C22.1554 35.0154 24.5075 32.7608 24.5075 29.9794C24.5075 27.1979 22.1555 24.9433 19.2538 24.9433C16.3522 24.9433 14 27.1979 14 29.9794C14 32.7608 16.3521 35.0154 19.2538 35.0154ZM40.7462 24.0722C43.6478 24.0722 46 21.8176 46 19.0361C46 16.2546 43.6479 14 40.7462 14C37.8446 14 35.4925 16.2546 35.4925 19.0361C35.4925 21.8176 37.8445 24.0722 40.7462 24.0722ZM40.7462 46C43.6478 46 46 43.7454 46 40.9639C46 38.1825 43.6479 35.9278 40.7462 35.9278C37.8446 35.9278 35.4925 38.1824 35.4925 40.9639C35.4925 43.7453 37.8445 46 40.7462 46Z" fill="white"/>
</svg>
