<svg width="37" height="32" viewBox="0 0 37 32" fill="none" xmlns="http://www.w3.org/2000/svg">
<path d="M32.1284 4.10697C31.341 3.31918 30.4061 2.69426 29.3771 2.26789C28.3481 1.84152 27.2452 1.62207 26.1314 1.62207C25.0175 1.62207 23.9146 1.84152 22.8856 2.26789C21.8566 2.69426 20.9217 3.31918 20.1343 4.10697L18.5001 5.74114L16.8659 4.10697C15.2754 2.51644 13.1182 1.62289 10.8689 1.62289C8.61951 1.62289 6.46229 2.51644 4.87177 4.10697C3.28124 5.69749 2.3877 7.85471 2.3877 10.1041C2.3877 12.3534 3.28124 14.5106 4.87177 16.1011L6.50593 17.7353L18.5001 29.7295L30.4943 17.7353L32.1284 16.1011C32.9162 15.3137 33.5411 14.3788 33.9675 13.3498C34.3939 12.3208 34.6133 11.2179 34.6133 10.1041C34.6133 8.99022 34.3939 7.8873 33.9675 6.8583C33.5411 5.8293 32.9162 4.89438 32.1284 4.10697V4.10697Z" stroke="black" stroke-width="3.08333" stroke-linecap="round" stroke-linejoin="round"/>
</svg>
