<svg width="28" height="28" viewBox="0 0 28 28" fill="none" xmlns="http://www.w3.org/2000/svg">
<g clip-path="url(#clip0_433_1492)">
<path d="M21.4408 23.4311C21.2369 23.5854 20.9699 23.6284 20.7271 23.5463L14.4541 21.4331L8.27983 23.7529C8.04027 23.8429 7.77162 23.809 7.56115 23.6615C7.35097 23.5139 7.22619 23.2725 7.22691 23.0162L7.26202 16.3995L3.11885 11.2227C2.95833 11.0225 2.90607 10.7558 2.97979 10.5106C3.05344 10.2659 3.24376 10.0733 3.48797 9.99662L9.78085 8.02034L13.3938 2.50165C13.5338 2.2872 13.7703 2.15685 14.0266 2.15236C14.2829 2.14788 14.5251 2.27089 14.6741 2.4798L18.5296 7.87519L24.9066 9.64036C25.154 9.70892 25.3524 9.89462 25.4367 10.1375C25.5214 10.3801 25.481 10.6478 25.3293 10.8539L21.4177 16.1642L21.746 22.7758C21.7587 23.0315 21.6448 23.2767 21.4408 23.431L21.4408 23.4311ZM8.78565 21.8992L14.1589 19.88C14.326 19.8172 14.5094 19.8143 14.679 19.8713L20.1393 21.7108L19.8533 15.9563C19.8444 15.7773 19.8973 15.6019 20.0031 15.4582L23.4071 10.8363L17.8574 9.29985C17.6852 9.25252 17.534 9.14651 17.4296 9.00066L14.0742 4.30506L10.9296 9.10865C10.8315 9.25782 10.6856 9.36823 10.5154 9.42206L5.03781 11.1421L8.64425 15.6478C8.75649 15.7878 8.81719 15.9617 8.81585 16.1408L8.78565 21.8992Z" fill="#6C6C6C"/>
</g>
<defs>
<clipPath id="clip0_433_1492">
<rect width="27.2369" height="27.2369" fill="white"/>
</clipPath>
</defs>
</svg>
